<svg enable-background="new 0 0 648 308" viewBox="0 0 648 308" xmlns="http://www.w3.org/2000/svg" xmlns:xlink="http://www.w3.org/1999/xlink"><linearGradient id="a"><stop offset="0" stop-color="#325562"/><stop offset="1" stop-color="#1c272b"/></linearGradient><linearGradient id="b" gradientUnits="userSpaceOnUse" x1="574.3974" x2="574.3974" xlink:href="#a" y1="149.0172" y2="95.2435"/><clipPath id="c"><path d="m529.6 124.2v-48.6c0-1.4 1.1-2.5 2.5-2.5h84.6c1.4 0 2.5 1.1 2.5 2.5v48.7c0 1.4-1.1 2.5-2.5 2.5h-84.6c-1.4-.1-2.5-1.2-2.5-2.6z"/></clipPath><mask id="d" height="4.4" maskUnits="userSpaceOnUse" width="4.4" x="576.6" y="86.9"><path clip-rule="evenodd" d="m575.9 87.8 4.1-1.6 1.6 4.1-4.1 1.6z" fill="#fff" fill-rule="evenodd"/></mask><mask id="e" height="35.2" maskUnits="userSpaceOnUse" width="59.6" x="555.5" y="86"><path clip-rule="evenodd" d="m561.3 128.9 57.2-22.3-12-30.7-57.2 22.3z" fill="#fff" fill-rule="evenodd"/></mask><clipPath id="f"><ellipse cx="505.5" cy="113.7" rx="19.1" ry="19.1"/></clipPath><clipPath id="g"><path d="m487.9 162.5 19-.5c2.8-.1 5.1-2.5 5-5.3l-.6-20.7c-.1-2.8-2.5-5.1-5.3-5l-19 .5c-2.8.1-5.1 2.5-5 5.3l.6 20.7c.1 2.9 2.4 5.1 5.3 5z"/></clipPath><linearGradient id="h" gradientUnits="userSpaceOnUse" x1="126.0793" x2="126.0793" xlink:href="#a" y1="152.7839" y2="99.0102"/><clipPath id="i"><path d="m81.3 128v-48.7c0-1.4 1.1-2.5 2.5-2.5h84.6c1.4 0 2.5 1.1 2.5 2.5v48.7c0 1.4-1.1 2.5-2.5 2.5h-84.6c-1.4 0-2.5-1.1-2.5-2.5z"/></clipPath><clipPath id="j"><ellipse cx="130" cy="102.8" rx="10.6" ry="10.6" transform="matrix(.9264 -.3766 .3766 .9264 -29.1256 56.5339)"/></clipPath><linearGradient id="k"><stop offset=".4201" stop-color="#d7e7f1" stop-opacity=".8"/><stop offset=".6358" stop-color="#d7e7f1" stop-opacity="0"/></linearGradient><linearGradient id="l" gradientTransform="matrix(.6109 .7917 -.3377 .2607 -2208.301 -1124.9597)" gradientUnits="userSpaceOnUse" x1="2397.1797" x2="2397.1797" xlink:href="#k" y1="-2708.0515" y2="-2501.7246"/><linearGradient id="m" gradientTransform="matrix(.6109 .7917 -.3377 .2607 -2208.301 -1124.9597)" gradientUnits="userSpaceOnUse" x1="2402.5977" x2="2402.5977" xlink:href="#k" y1="-2707.783" y2="-2501.4558"/><clipPath id="n"><ellipse cx="57.2" cy="117.5" rx="19.1" ry="19.1"/></clipPath><clipPath id="o"><path d="m39.6 166.3 19-.5c2.8-.1 5.1-2.5 5-5.3l-.6-20.7c-.1-2.8-2.5-5.1-5.3-5l-19 .5c-2.8.1-5.1 2.5-5 5.3l.6 20.7c0 2.8 2.4 5.1 5.3 5z"/></clipPath><linearGradient id="p" gradientUnits="userSpaceOnUse" x1="358.4429" x2="358.4429" xlink:href="#a" y1="125.3709" y2="40.7228"/><clipPath id="q"><path d="m287.9 86.4v-76.7c0-2.2 1.8-3.9 3.9-3.9h133.2c2.2 0 3.9 1.8 3.9 3.9v76.6c0 2.2-1.8 3.9-3.9 3.9h-133.2c-2.1.1-3.9-1.7-3.9-3.8z"/></clipPath><clipPath id="r"><path d="m287.9 86.4v-76.7c0-2.2 1.8-3.9 3.9-3.9h133.2c2.2 0 3.9 1.8 3.9 3.9v76.6c0 2.2-1.8 3.9-3.9 3.9h-133.2c-2.1.1-3.9-1.7-3.9-3.8z"/></clipPath><mask id="s" height="35.6" maskUnits="userSpaceOnUse" width="10.3" x="345.1" y="33.5"><path d="m345.1-34.3c.8.2 3.9-4.2 4.3-6.2.3-1.3 2.3-10.7 6.1-28l-5.6-1.2c-4.1 18.7-6.1 28-6.1 28-.5 2 .5 7.2 1.3 7.4z" fill="#fff"/></mask><mask id="t" height="1.2" maskUnits="userSpaceOnUse" width="3" x="347.3" y="57.6"><path d="m345.1-34.3c.8.2 3.9-4.2 4.3-6.2.3-1.3 2.3-10.7 6.1-28l-5.6-1.2c-4.1 18.7-6.1 28-6.1 28-.5 2 .5 7.2 1.3 7.4z" fill="#fff"/></mask><mask id="u" height="1.2" maskUnits="userSpaceOnUse" width="3" x="345.5" y="49.5"><path d="m345.1-34.3c.8.2 3.9-4.2 4.3-6.2.3-1.3 2.3-10.7 6.1-28l-5.6-1.2c-4.1 18.7-6.1 28-6.1 28-.5 2 .5 7.2 1.3 7.4z" fill="#fff"/></mask><mask id="v" height="1.2" maskUnits="userSpaceOnUse" width="3" x="343.7" y="41.1"><path d="m345.1-34.3c.8.2 3.9-4.2 4.3-6.2.3-1.3 2.3-10.7 6.1-28l-5.6-1.2c-4.1 18.7-6.1 28-6.1 28-.5 2 .5 7.2 1.3 7.4z" fill="#fff"/></mask><mask id="w" height="1.3" maskUnits="userSpaceOnUse" width="3.3" x="346.6" y="40.4"><path d="m345.1-34.3c.8.2 3.9-4.2 4.3-6.2.3-1.3 2.3-10.7 6.1-28l-5.6-1.2c-4.1 18.7-6.1 28-6.1 28-.5 2 .5 7.2 1.3 7.4z" fill="#fff"/></mask><mask id="x" height="1.3" maskUnits="userSpaceOnUse" width="3.3" x="348.4" y="48.8"><path d="m345.1-34.3c.8.2 3.9-4.2 4.3-6.2.3-1.3 2.3-10.7 6.1-28l-5.6-1.2c-4.1 18.7-6.1 28-6.1 28-.5 2 .5 7.2 1.3 7.4z" fill="#fff"/></mask><mask id="y" height="1.3" maskUnits="userSpaceOnUse" width="3.3" x="350.2" y="56.9"><path d="m345.1-34.3c.8.2 3.9-4.2 4.3-6.2.3-1.3 2.3-10.7 6.1-28l-5.6-1.2c-4.1 18.7-6.1 28-6.1 28-.5 2 .5 7.2 1.3 7.4z" fill="#fff"/></mask><mask id="z" height="29.8" maskUnits="userSpaceOnUse" width="40.3" x="271.1" y="-40.9"><path d="m300.7-33.9c-8.4 5.6-16.6 4.5-20.8 3.9s-7.3 2.6-7.3 2.6l-1.6 1.5 7.9 14.8 32.1-29.5.4-.4c-2.3 1.5-10.7 7.1-10.7 7.1z" fill="#fff"/></mask><mask id="A" height="13.4" maskUnits="userSpaceOnUse" width="12.4" x="291.5" y="52.6"><path d="m304.2 59.4c.3 4.3-3.2 7.1-3.2 7.1l-1.6 1.5-14.2-9.2 32.1-29.5-7.5 9.7c-6.4 7.8-5.9 16.1-5.6 20.4z" fill="#fff"/></mask><mask id="B" height="13.2" maskUnits="userSpaceOnUse" width="12.2" x="292.9" y="51.6"><path d="m304.2 59.4c.3 4.3-3.2 7.1-3.2 7.1l-1.6 1.5-14.2-9.2 32.1-29.5-7.5 9.7c-6.4 7.8-5.9 16.1-5.6 20.4z" fill="#fff"/></mask><mask id="C" height="13.1" maskUnits="userSpaceOnUse" width="12.1" x="294.4" y="50.5"><path d="m304.2 59.4c.3 4.3-3.2 7.1-3.2 7.1l-1.6 1.5-14.2-9.2 32.1-29.5-7.5 9.7c-6.4 7.8-5.9 16.1-5.6 20.4z" fill="#fff"/></mask><mask id="D" height="29.7" maskUnits="userSpaceOnUse" width="18.6" x="346" y="-5.4"><path d="m364.6-3.8c-.6-.4-4.5 2.5-5.4 4.1-.6 1.1-5 8.5-13.1 22.5l4.5 2.6c8.7-15 13.1-22.4 13.1-22.4.9-1.6 1.5-6.4.9-6.8z" fill="#fff"/></mask><mask id="E" height="1.8" maskUnits="userSpaceOnUse" width="2.6" x="353.3" y="14.9"><path d="m364.6-3.8c-.6-.4-4.5 2.5-5.4 4.1-.6 1.1-5 8.5-13.1 22.5l4.5 2.6c8.7-15 13.1-22.4 13.1-22.4.9-1.6 1.5-6.4.9-6.8z" fill="#fff"/></mask><mask id="F" height="1.8" maskUnits="userSpaceOnUse" width="2.6" x="357.1" y="8.4"><path d="m364.6-3.8c-.6-.4-4.5 2.5-5.4 4.1-.6 1.1-5 8.5-13.1 22.5l4.5 2.6c8.7-15 13.1-22.4 13.1-22.4.9-1.6 1.5-6.4.9-6.8z" fill="#fff"/></mask><mask id="G" height="1.8" maskUnits="userSpaceOnUse" width="2.6" x="361.1" y="1.7"><path d="m364.6-3.8c-.6-.4-4.5 2.5-5.4 4.1-.6 1.1-5 8.5-13.1 22.5l4.5 2.6c8.7-15 13.1-22.4 13.1-22.4.9-1.6 1.5-6.4.9-6.8z" fill="#fff"/></mask><mask id="H" height="1.9" maskUnits="userSpaceOnUse" width="2.8" x="358.5" y=".2"><path d="m364.6-3.8c-.6-.4-4.5 2.5-5.4 4.1-.6 1.1-5 8.5-13.1 22.5l4.5 2.6c8.7-15 13.1-22.4 13.1-22.4.9-1.6 1.5-6.4.9-6.8z" fill="#fff"/></mask><mask id="I" height="1.9" maskUnits="userSpaceOnUse" width="2.8" x="354.6" y="6.9"><path d="m364.6-3.8c-.6-.4-4.5 2.5-5.4 4.1-.6 1.1-5 8.5-13.1 22.5l4.5 2.6c8.7-15 13.1-22.4 13.1-22.4.9-1.6 1.5-6.4.9-6.8z" fill="#fff"/></mask><mask id="J" height="1.9" maskUnits="userSpaceOnUse" width="2.8" x="350.8" y="13.4"><path d="m364.6-3.8c-.6-.4-4.5 2.5-5.4 4.1-.6 1.1-5 8.5-13.1 22.5l4.5 2.6c8.7-15 13.1-22.4 13.1-22.4.9-1.6 1.5-6.4.9-6.8z" fill="#fff"/></mask><clipPath id="K"><ellipse cx="250" cy="69.8" rx="30.1" ry="30.1"/></clipPath><clipPath id="L"><path d="m222.3 146.7 30-.9c4.5-.1 8-3.9 7.9-8.3l-.9-32.6c-.1-4.5-3.9-8-8.4-7.9l-30 .9c-4.5.1-8 3.9-7.9 8.3l.9 32.6c.1 4.5 3.9 8 8.4 7.9z"/></clipPath><path d="m-.6 164.8c0-82.9 95.2-104.4 172.4-104.4 81.1 0 107.1-54.4 190.6-50.1s285 35 285 125-107.3 105.9-155.9 105.9c-74.4 0-92.9 53.2-175.2 64.2-94.1 12.5-316.9-15.5-316.9-140.6z" fill="#1c262b"/><path d="m549.8 196.1v-4.3c0-3.3 2.7-5.9 6-5.9h37.5c3.3 0 6 2.7 6 5.9v4.3z" fill="#4e7285"/><path d="m593.3 185.9h-11v10.2h17v-4.3c-.1-3.3-2.8-5.9-6-5.9z" fill="#424244" opacity=".11"/><path clip-rule="evenodd" d="m549.9 190.5h49.1c-.6-2.7-3-4.6-5.8-4.6h-37.5c-2.8 0-5.2 1.9-5.8 4.6z" fill="#315562" fill-rule="evenodd" opacity=".51"/><path clip-rule="evenodd" d="m612.6 187h-76.4c-4.4 0-8-3.6-8-8v-20.6c0-4.4 3.6-8 8-8h76.4c4.4 0 8 3.6 8 8v20.6c0 4.5-3.6 8-8 8z" fill="#4f687a" fill-rule="evenodd"/><path d="m562.9 135.9c-1 4.2-2.1 8.4-3.1 12.7h28.9c-1-4.2-2.1-8.4-3.1-12.7-7.6 0-15.2 0-22.7 0z" fill="#255664"/><path d="m623 130.9v-56.9c0-2.5-2-4.6-4.6-4.6h-90.6c-1.3 0-2.4 1.1-2.4 2.4v59.1z" fill="#255664"/><path d="m574.1 148.5h14.6c-1-4.2-2.1-8.4-3.1-12.7-3.8 0-7.7 0-11.5 0z" fill="#273b42" opacity=".07"/><path d="m590.5 148.3h-32.5c-.8 0-1.5.8-1.5 1.8v.7h35.4v-.8c0-.9-.6-1.7-1.4-1.7z" fill="#255664"/><path d="m525.4 130.9v7c0 1.3 1.1 2.4 2.4 2.4h92.8c1.3 0 2.4-1.1 2.4-2.4v-7z" fill="#697f92"/><circle cx="574.4" cy="134.8" fill="#dbe8f1" r="1.7"/><path d="m529.6 124.2v-48.6c0-1.4 1.1-2.5 2.5-2.5h84.6c1.4 0 2.5 1.1 2.5 2.5v48.7c0 1.4-1.1 2.5-2.5 2.5h-84.6c-1.4-.1-2.5-1.2-2.5-2.6z" fill="url(#b)"/><g style="clip-path:url(#c);opacity:.08;fill:none;stroke:#fff;stroke-width:3;stroke-miterlimit:10"><path d="m525.5 64.3h97.5"/><path d="m525.5 72h97.5" opacity=".9336"/><path d="m525.5 79.6h97.5" opacity=".8673"/><path d="m525.5 87.2h97.5" opacity=".8009"/><path d="m525.5 94.9h97.5" opacity=".7345"/><path d="m525.5 102.5h97.5" opacity=".6682"/><path d="m525.5 110.2h97.5" opacity=".6018"/><path d="m525.5 117.8h97.5" opacity=".5355"/><path d="m525.5 125.4h97.5" opacity=".4691"/><path d="m525.5 133.1h97.5" opacity=".4027"/><path d="m525.5 140.7h97.5" opacity=".3364"/><path d="m525.5 148.4h97.5" opacity=".27"/></g><path clip-rule="evenodd" d="m610.8 158h-73.6c-2.6 0-4.6 2.1-4.6 4.6v15.4c0 2.6 2.1 4.6 4.6 4.6h16.3l4.2-4.6h32.6l4.2 4.6h16.3c2.6 0 4.6-2.1 4.6-4.6v-15.4c.1-2.5-2-4.6-4.6-4.6z" fill="#315562" fill-rule="evenodd"/><path clip-rule="evenodd" d="m610.8 155h-73.6c-2.6 0-4.6 2.1-4.6 4.6v15.4c0 2.6 2.1 4.6 4.6 4.6h16.3l4.2-4.6h32.6l4.2 4.6h16.3c2.6 0 4.6-2.1 4.6-4.6v-15.4c.1-2.5-2-4.6-4.6-4.6z" fill="#6d7f91" fill-rule="evenodd"/><path clip-rule="evenodd" d="m596.1 161.3h-1.9c-.4 0-.8-.4-.8-.8v-.9c0-.4.4-.8.8-.8h1.9c.4 0 .8.4.8.8v.9c0 .5-.4.8-.8.8" fill="#dbe8f1" fill-rule="evenodd"/><path clip-rule="evenodd" d="m601.2 161.3h-1.9c-.4 0-.8-.4-.8-.8v-.9c0-.4.4-.8.8-.8h1.9c.4 0 .8.4.8.8v.9c0 .4-.4.8-.8.8" fill="#315562" fill-rule="evenodd"/><path clip-rule="evenodd" d="m606.3 161.3h-1.9c-.4 0-.8-.4-.8-.8v-.9c0-.4.4-.8.8-.8h1.9c.4 0 .8.4.8.8v.9c0 .4-.4.8-.8.8" fill="#f79d79" fill-rule="evenodd"/><path clip-rule="evenodd" d="m611.3 161.2h-1.9c-.4 0-.8-.4-.8-.8v-.9c0-.4.4-.8.8-.8h1.9c.4 0 .8.4.8.8v.9c.1.5-.3.8-.8.8" fill="#315562" fill-rule="evenodd"/><path clip-rule="evenodd" d="m596.1 165.3h-1.9c-.4 0-.8-.4-.8-.8v-.9c0-.4.4-.8.8-.8h1.9c.4 0 .8.4.8.8v.9c0 .5-.4.8-.8.8" fill="#f79d79" fill-rule="evenodd"/><path clip-rule="evenodd" d="m601.2 165.3h-1.9c-.4 0-.8-.4-.8-.8v-.9c0-.4.4-.8.8-.8h1.9c.4 0 .8.4.8.8v.9c0 .4-.4.8-.8.8" fill="#dbe8f1" fill-rule="evenodd"/><path clip-rule="evenodd" d="m606.3 165.2h-1.9c-.4 0-.8-.4-.8-.8v-.9c0-.4.4-.8.8-.8h1.9c.4 0 .8.4.8.8v.9c0 .5-.4.8-.8.8" fill="#f79d79" fill-rule="evenodd"/><path clip-rule="evenodd" d="m611.4 165.2h-1.9c-.4 0-.8-.4-.8-.8v-.9c0-.4.4-.8.8-.8h1.9c.4 0 .8.4.8.8v.9c0 .4-.4.8-.8.8" fill="#dbe8f1" fill-rule="evenodd"/><circle clip-rule="evenodd" cx="539.4" cy="159.3" fill="#315562" fill-rule="evenodd" r="1.8"/><circle clip-rule="evenodd" cx="539.4" cy="164.9" fill="#315562" fill-rule="evenodd" r="1.8"/><circle clip-rule="evenodd" cx="539.4" cy="170.5" fill="#315562" fill-rule="evenodd" r="1.8"/><circle clip-rule="evenodd" cx="545.2" cy="159.3" fill="#315562" fill-rule="evenodd" r="1.8"/><circle clip-rule="evenodd" cx="545.2" cy="164.9" fill="#315562" fill-rule="evenodd" r="1.8"/><circle clip-rule="evenodd" cx="545.2" cy="170.5" fill="#315562" fill-rule="evenodd" r="1.8"/><circle clip-rule="evenodd" cx="550.9" cy="159.3" fill="#315562" fill-rule="evenodd" r="1.8"/><circle clip-rule="evenodd" cx="550.9" cy="164.9" fill="#315562" fill-rule="evenodd" r="1.8"/><circle clip-rule="evenodd" cx="550.9" cy="170.5" fill="#315562" fill-rule="evenodd" r="1.8"/><circle clip-rule="evenodd" cx="556.7" cy="159.3" fill="#315562" fill-rule="evenodd" r="1.8"/><circle clip-rule="evenodd" cx="556.7" cy="164.9" fill="#315562" fill-rule="evenodd" r="1.8"/><circle clip-rule="evenodd" cx="556.7" cy="170.5" fill="#315562" fill-rule="evenodd" r="1.8"/><circle clip-rule="evenodd" cx="562.5" cy="159.3" fill="#315562" fill-rule="evenodd" r="1.8"/><circle clip-rule="evenodd" cx="562.5" cy="164.9" fill="#315562" fill-rule="evenodd" r="1.8"/><circle clip-rule="evenodd" cx="562.5" cy="170.5" fill="#315562" fill-rule="evenodd" r="1.8"/><circle clip-rule="evenodd" cx="568.3" cy="159.3" fill="#315562" fill-rule="evenodd" r="1.8"/><circle clip-rule="evenodd" cx="568.3" cy="164.9" fill="#315562" fill-rule="evenodd" r="1.8"/><circle clip-rule="evenodd" cx="568.3" cy="170.5" fill="#315562" fill-rule="evenodd" r="1.8"/><circle clip-rule="evenodd" cx="574" cy="159.3" fill="#315562" fill-rule="evenodd" r="1.8"/><circle clip-rule="evenodd" cx="574" cy="164.9" fill="#315562" fill-rule="evenodd" r="1.8"/><circle clip-rule="evenodd" cx="574" cy="170.5" fill="#315562" fill-rule="evenodd" r="1.8"/><circle clip-rule="evenodd" cx="579.8" cy="159.3" fill="#315562" fill-rule="evenodd" r="1.8"/><circle clip-rule="evenodd" cx="579.8" cy="164.9" fill="#315562" fill-rule="evenodd" r="1.8"/><circle clip-rule="evenodd" cx="579.8" cy="170.5" fill="#315562" fill-rule="evenodd" r="1.8"/><circle clip-rule="evenodd" cx="585.6" cy="159.3" fill="#315562" fill-rule="evenodd" r="1.8"/><circle clip-rule="evenodd" cx="585.6" cy="164.9" fill="#315562" fill-rule="evenodd" r="1.8"/><circle clip-rule="evenodd" cx="585.6" cy="170.5" fill="#315562" fill-rule="evenodd" r="1.8"/><path clip-rule="evenodd" d="m611.5 173.2h-17.4c-.4 0-.7-.3-.7-.7v-1.2c0-.4.3-.7.7-.7h17.4c.4 0 .7.3.7.7v1.2c0 .4-.4.7-.7.7z" fill="#dbe8f1" fill-rule="evenodd" opacity=".5"/><path clip-rule="evenodd" d="m611.5 169.4h-17.4c-.4 0-.7-.3-.7-.7v-1.2c0-.4.3-.7.7-.7h17.4c.4 0 .7.3.7.7v1.2c0 .4-.4.7-.7.7z" fill="#655c80" fill-rule="evenodd" opacity=".5"/><g mask="url(#d)"><path clip-rule="evenodd" d="m580.8 88.3c.4 1.1-.1 2.4-1.2 2.8s-2.4-.1-2.8-1.2.1-2.4 1.2-2.8c1.1-.5 2.3 0 2.8 1.2z" fill="#ee6b41" fill-rule="evenodd"/></g><path clip-rule="evenodd" d="m580.8 88.2c.2.5-.6 1.2-1.7 1.6s-2.2.4-2.4 0c-.2-.5.6-1.2 1.7-1.6s2.2-.4 2.4 0z" fill="#e3613e" fill-rule="evenodd"/><g clip-rule="evenodd" fill-rule="evenodd" mask="url(#e)"><path d="m586.7 111.9 1.7-.7-6.4-16.3-1.7.7z" fill="#52606f"/><path d="m580.9 97.1 1.7-.7-.6-1.6-1.7.7z" fill="#5d6e7f"/><path d="m571.2 112.3 28.8-11.3-.6-1.5-28.9 11.3z" fill="#52606f"/><path d="m590.9 104.5-11.2 4.4v-1.8l11.2-4.4z" fill="#5d6e7f"/><path d="m577.1 109.9-.6.2-.6-1.5 1.2-.5z" fill="#5d6e7f"/><path d="m593.5 103.5 1.2-.5-.6-1.5-.6.2z" fill="#5d6e7f"/><path d="m589.9 117.7c-.9.3-1.8-.1-2.1-.9l-1.3-3.3 3.1-1.2 1.3 3.3c.3.9-.1 1.8-1 2.1z" fill="#e3613e"/><path d="m590.5 116.9c-.2.2-.4.4-.7.5-.7.3-1.5-.1-1.8-.8l-.3-.7c-.1-.2 0-.5.2-.6l.6-.2c.1 0 .2 0 .3.1.2.6.7 1.1 1.3 1.3l.2.1c.2.1.2.2.2.3z" fill="#ee6b41"/><path d="m589.6 117.1c-.2 0-.4.1-.6 0s-.4-.2-.5-.3 0-.1 0-.2h.2c.1.1.2.1.4.2.1 0 .2 0 .4-.1.1-.1.2 0 .3.1 0 .1-.1.2-.2.3z" fill="#fff" fill-opacity=".3"/><path d="m590.7 113.9-3.9 1.5c-.9.4-2-.1-2.3-1l-5.5-14.1c-.1-.3 0-.7.3-.8l6.2-2.4c.3-.1.7 0 .8.3l5.5 14.1c.3 1-.2 2-1.1 2.4z" fill="#67798d"/><path d="m590.9 112.8-5 2c-.6.2-1.3-.1-1.6-.7l-.4-1 7.3-2.8.4 1c.2.5-.1 1.2-.7 1.5z" fill="#5d6e7f"/><path d="m590.4 111.5-5 2c-1.4.5-3-.1-3.5-1.5l-4-10.1c-.1-.3 0-.7.3-.8l9-3.5c.3-.1.7 0 .8.3l4 10.1c.5 1.4-.2 3-1.6 3.5z" fill="#67798d"/><path d="m589.9 111.3-4.3 1.7c-1.4.5-3-.1-3.5-1.5l-3.8-9.7c-.1-.3 0-.7.3-.8l8.2-3.2c.3-.1.7 0 .8.3l3.8 9.7c.6 1.4-.1 2.9-1.5 3.5z" fill="#7a91a6"/><path d="m587.4 111.2c-1.5.6-3.1 0-3.9-1.2l-2.6-4.4c-1.2-2-.2-4.7 2.1-5.6s4.9.4 5.4 2.7l1 5c.3 1.5-.5 3-2 3.5z" fill="#7a91a6"/><path d="m584 110-2.5-6.3 4.8-1.9c.2-.1.3 0 .4.2l2.3 5.8c.1.2 0 .3-.2.4z" fill="#1d2429"/><path d="m584 110-2.5-6.3 3.2-3c.2-.1.4-.1.5.1l2.2 5.7c0 .1 0 .2-.1.3z" fill="#90a7bb"/><path d="m585.2 86.1c.5-.2 1.1 0 1.2.6 1 4-1.1 8.1-4.9 9.5-3.8 1.5-8.1-.1-10.1-3.7-.3-.5 0-1.1.5-1.3 4.6-1.4 9-3.1 13.3-5.1z" fill="#5f5377"/><path d="m580.9 94.5c-3.3 1.3-6.9.5-9.2-1.6 2 3.3 6.2 4.8 9.9 3.3s5.8-5.3 5-9.1c-.3 3.1-2.4 6.1-5.7 7.4z" fill="#564970"/><path d="m577.7 87.5c.1.1 0 .3-.2.5s-.4.3-.5.2 0-.3.2-.5c.2-.1.4-.2.5-.2z" fill="#fff" fill-opacity=".3"/><path d="m585.4 104.1c.1.2 0 .5-.2.6s-.4.1-.5-.2c-.1-.2 0-.5.2-.6.3-.1.5 0 .5.2z" fill="#67798d"/><path d="m576.3 115-15.4 6c-1.2.5-2.6-.1-3.1-1.4l-2-5.2c-.5-1.2.1-2.6 1.4-3.1l15.4-6c1.2-.5 2.6.1 3.1 1.4l2 5.2c.4 1.2-.2 2.6-1.4 3.1z" fill="#5f5377"/><g fill="#564970"><path d="m570.9 113.2 3-1.2-1.3-3.4-3 1.2zm-3.5 1.3 3-1.2-1.3-3.4-3 1.2zm-3.4 1.4 3-1.2-1.3-3.4-3 1.2zm-3.4 1.3 3-1.2-1.3-3.4-3 1.2zm15.3-9.8-.2-.4-2.9 1.1-1-2.5-.4.2 1 2.5-3 1.2-1-2.5h-.4l1 2.5-3 1.2-1-2.5-.4.2 1 2.5-3 1.2-1-2.5-.4.2 1 2.5-3 1.2-1-2.5-.4.2 1 2.5-2.9 1.1.2.4 2.9-1.1 1.3 3.4-2.9 1.1.2.4 2.9-1.1 1.2 3 .4-.2-1.2-3 3-1.2 1.2 3 .4-.2-1.2-3 3-1.2 1.2 3 .4-.2-1.2-3 3-1.2 1.2 3 .4-.2-1.2-3 3-1.2 1.2 3 .4-.2-1.2-3 2.9-1.1-.2-.4-2.9 1.1-1.3-3.4z"/><path d="m564.5 119.6-3.6 1.4c-1.2.5-2.6-.1-3.1-1.4l-1.4-3.5z" opacity=".2"/><path d="m575.2 115.4-3 1.2-12.6-6.3 3-1.2z" opacity=".2"/><path d="m570.9 105.9 1.6-.6c1.2-.5 2.6.1 3.1 1.4l.5 1.3z" opacity=".2"/></g><path d="m613.6 100.4-15.4 6c-1.2.5-2.6-.1-3.1-1.4l-2-5.2c-.5-1.2.1-2.6 1.4-3.1l15.4-6c1.2-.5 2.6.1 3.1 1.4l2 5.2c.4 1.2-.2 2.6-1.4 3.1z" fill="#5f5377"/><path d="m608.2 98.6 3-1.2-1.3-3.4-3 1.2zm-3.5 1.4 3-1.2-1.3-3.4-3 1.2zm-3.4 1.3 3-1.2-1.3-3.4-3 1.2zm-3.4 1.3 3-1.2-1.3-3.4-3 1.2zm15.3-9.8-.2-.4-2.9 1.1-1-2.5-.4.2 1 2.5-3 1.2-1-2.5-.4.2 1 2.5-3 1.2-1-2.5-.4.2 1 2.5-3 1.2-1-2.5-.4.2 1 2.5-3 1.2-1-2.5-.4.2 1 2.5-2.9 1.1.2.4 2.9-1.1 1.3 3.4-2.9 1.1.2.4 2.9-1.1 1.2 3 .4-.2-1.2-3 3-1.2 1.2 3 .4-.2-1.2-3 3-1.2 1.2 3 .4-.2-1.2-3 3-1.2 1.2 3 .4-.2-1.2-3 3-1.2 1.2 3 .4-.2-1.2-3 2.9-1.1-.2-.4-2.9 1.1-1.3-3.4z" fill="#564970"/><path d="m609.9 101.8 3.6-1.4c1.2-.5 1.8-1.9 1.4-3.1l-1.4-3.5z" fill="#564970" opacity=".2"/><path d="m599.2 106 3-1.2 5-13.1-3 1.2z" fill="#564970" opacity=".2"/><path d="m596 96.1-1.6.6c-1.2.5-1.9 1.9-1.4 3.1l.5 1.3z" fill="#564970" fill-opacity=".2"/><path d="m581.6 88.5-5.4 2.1c-.2.1-.4 0-.5-.2s0-.4.2-.5l5.4-2.1c.2-.1.4 0 .5.2.1.3 0 .5-.2.5z" fill="#ee6b41" fill-opacity=".05"/></g><path clip-rule="evenodd" d="m534 92.8h9.5v2.4h-9.5zm-.2-8.8c0-2.9 2.4-5.4 5.4-5.4s5.4 2.4 5.4 5.4c0 2.9-2.4 5.4-5.4 5.4-2.9-.1-5.4-2.5-5.4-5.4" fill="#7c8f97" fill-rule="evenodd" opacity=".48"/><path clip-rule="evenodd" d="m548 87.3h17.7v1.7h-17.7zm-.1-3.2h17.7v1.7h-17.7zm-.1-3.1h17.7v1.7h-17.7zm.2 9.5h17.7v1.7h-17.7zm0 3.2h17.7v1.7h-17.7z" fill="#dbe8f1" fill-rule="evenodd" opacity=".48"/><ellipse cx="566.5" cy="107.8" fill="none" rx="4.7" ry="4.7" stroke="#dbe8f1" stroke-dasharray="1.9617 .9809" stroke-miterlimit="10" transform="matrix(.945 -.3272 .3272 .945 -4.0725 191.2962)"/><path d="m556.9 98.1.7.7" fill="none" stroke="#dbe8f1" stroke-miterlimit="10"/><path d="m558.3 99.5 3.8 3.9" fill="none" stroke="#dbe8f1" stroke-dasharray="1.991 .9955" stroke-miterlimit="10"/><path d="m562.5 103.7.7.7" fill="none" stroke="#dbe8f1" stroke-miterlimit="10"/><path d="m503.7 221.9v-3.9c0-3 2.4-5.4 5.5-5.4h34.4c3 0 5.5 2.4 5.5 5.4v3.9z" fill="#4e7285"/><path d="m543.5 212.5h-10.1v9.3h15.6v-3.8c0-3-2.5-5.5-5.5-5.5z" fill="#424244" opacity=".11"/><path clip-rule="evenodd" d="m508 212.7c-2.4.5-4.2 2.6-4.3 5.1h45.2c-.1-2.5-1.9-4.6-4.3-5.1z" fill="#315562" fill-rule="evenodd" opacity=".51"/><path d="m502.9 102.6-6.2-15.3-1.6.7 6.1 15.3z" fill="#726b65"/><path d="m493.5 90.5c1.8 1.2 4.2.8 5.4-1s.8-4.2-1-5.4-4.2-.8-5.4 1-.8 4.2 1 5.4z" fill="#f1704d"/><path d="m521 160.4h11c5.1 0 9.3 4.2 9.3 9.3v25.5c0 2.2-1.8 4-4 4h-6.3c-2.2 0-4-1.8-4-4v-21.5h-6.5s1.1-13.3.5-13.3z" fill="#ece6e1"/><path d="m501 160.4h11c5.1 0 9.3 4.2 9.3 9.3v25.5c0 2.2-1.8 4-4 4h-6.3c-2.2 0-4-1.8-4-4v-21.5h-6.5c-.1 0 1-13.3.5-13.3z" fill="#ece6e1"/><ellipse cx="505.5" cy="113.7" fill="#ece6e1" rx="19.1" ry="19.1"/><g clip-path="url(#f)"><ellipse cx="529.2" cy="110" fill="#b2c9d2" rx="13.5" ry="13.5"/><path d="m528.9 96.6c-3 .1-5.7 1.1-7.9 2.8 1.8 2.2 2.9 5.1 3 8.1.1 4.5-2 8.5-5.3 11 2.5 3.1 6.5 5.1 10.8 5 7.4-.2 13.3-6.3 13.2-13.8-.2-7.4-6.4-13.3-13.8-13.1z" fill="#a2b8c5"/></g><path d="m524.3 171.5-1-29.7c0-9.1-6.5-16.5-15.6-16.5h-6.2c-9.1 0-16.6 7.5-16.6 16.6v20.9c0 4.8 3.9 8.7 8.7 8.7 11.5.1 30.5.2 30.7 0z" fill="#ece6e1"/><path d="m524.3 156.9s-8 3.2-13.1-2.9.7 4 .7 4 4.4 4.4 12.6 1.6" fill="#e26d60"/><path d="m487.9 162.5 19-.5c2.8-.1 5.1-2.5 5-5.3l-.6-20.7c-.1-2.8-2.5-5.1-5.3-5l-19 .5c-2.8.1-5.1 2.5-5 5.3l.6 20.7c.1 2.9 2.4 5.1 5.3 5z" fill="#ef6b42"/><path d="m537 161c-.8.5-1.7.8-2.7.8h-1.1c-7.6.3-14.6-4.6-17-11.8l-4.1-12.5c-1-2.9.6-6.1 3.6-7.1 2.9-1 6.1.6 7.1 3.6l4.1 12.5c.8 2.5 3.3 4.2 5.9 4.1h1.1c3.1-.1 5.7 2.3 5.8 5.4.1 2.1-1 4-2.7 5z" fill="#ece6e1"/><path d="m537 161c-.8.5-1.7.8-2.7.8h-1.1c-7.6.3-14.6-4.6-17-11.8l-4.1-12.5c-1-2.9.6-6.1 3.6-7.1 2.9-1 6.1.6 7.1 3.6l4.1 12.5c.8 2.5 3.3 4.2 5.9 4.1h1.1c3.1-.1 5.7 2.3 5.8 5.4.1 2.1-1 4-2.7 5z" fill="#ece6e1" opacity=".3"/><path d="m482.6 157.8 17-.5c1.8-.1 3.3-1.6 3.2-3.4l-.1-2.4c-.1-1.8-1.6-3.3-3.4-3.2l-17 .5z" fill="#f69c7c" opacity=".42"/><path d="m497.2 145.5c0 .8.7 1.5 1.5 1.5s1.5-.7 1.5-1.5-.7-1.5-1.5-1.5c-.9 0-1.5.7-1.5 1.5z" fill="#e7dfcb"/><path d="m492.1 145.7c0 .8.7 1.5 1.5 1.5s1.5-.7 1.5-1.5-.7-1.5-1.5-1.5c-.9 0-1.5.6-1.5 1.5z" fill="#e7dfcb"/><path d="m499.5 155.6c.5 0 .9-.5.9-1l-.1-3.5c0-.5-.5-.9-1-.9-.5 0-.9.5-.9 1l.1 3.5c.1.5.5.9 1 .9z" fill="#fff3ed"/><path d="m495.4 155.7c.5 0 .9-.5.9-1l-.1-3.5c0-.5-.5-.9-1-.9-.5 0-.9.5-.9 1l.1 3.5c0 .5.5.9 1 .9z" fill="#fff3ed"/><path d="m491.2 155.8c.5 0 .9-.5.9-1l-.1-3.5c0-.5-.5-.9-1-.9-.5 0-.9.5-.9 1l.1 3.5c.1.5.5.9 1 .9z" fill="#fff3ed"/><path d="m487.1 155.9c.5 0 .9-.5.9-1l-.1-3.5c0-.5-.5-.9-1-.9-.5 0-.9.5-.9 1l.1 3.5c0 .5.5.9 1 .9z" fill="#fff3ed"/><path d="m484.9 146.8 4.8-.1c.5 0 1-.5.9-1 0-.5-.5-1-1-.9l-4.8.1c-.5 0-1 .5-.9 1 0 .5.5.9 1 .9z" fill="#f69c7c"/><path clip-path="url(#g)" d="m480.9 142.4 14.5-.4c3.2-.1 5.7-2.7 5.6-5.9l-.1-4.9-20.3.6z" fill="#766991"/><path d="m510 128.4c-10.6 0-19.1-8.6-19.1-19.1 0-4.1 1.3-8 3.6-11.1-4.8 3.5-8 9.1-8 15.5 0 10.6 8.6 19.1 19.1 19.1 6.4 0 12.1-3.2 15.6-8-3.3 2.3-7.1 3.6-11.2 3.6z" fill="#ece6e1" opacity=".3"/><path d="m554.6 213.1h-60.2c-3.9 0-7.1-3.2-7.1-7.1 0-3.9 3.2-7.1 7.1-7.1h60.2c3.9 0 7.1 3.2 7.1 7.1 0 3.9-3.2 7.1-7.1 7.1z" fill="#5a808c"/><path d="m500.7 207.4h-6.6c-.6 0-1.1-.5-1.1-1.1 0-.6.5-1.1 1.1-1.1h6.6c.6 0 1.1.5 1.1 1.1 0 .6-.5 1.1-1.1 1.1z" fill="#4e7285"/><circle cx="504.8" cy="206.2" fill="#e7dfcb" r="1.2"/><circle cx="508.8" cy="206.2" fill="#e7dfcb" r="1.2"/><circle cx="512.9" cy="206.3" fill="#e7dfcb" r="1.2"/><path d="m516.9 183.5c-1.1-.9-11.4-.3-11.7-.3-.4 0-10.6-.5-11.7.3 0 0 10.1 1.1 9.7 16.4h2 2c-.4-15.3 9.7-16.4 9.7-16.4z" fill="#473f53"/><path d="m521.6 183.6h-32.2c-3.6 0-6.6-2.9-6.6-6.6 0-3.6 2.9-6.6 6.6-6.6h32.2c3.6 0 6.6 2.9 6.6 6.6-.1 3.6-3 6.6-6.6 6.6z" fill="#7d738c"/><path d="m521.7 170.5h-16.8v13.1h16.8c3.5 0 6.5-2.9 6.5-6.5v-.2c-.1-3.5-3-6.4-6.5-6.4z" fill="#424244" opacity=".18"/><path d="m554.6 199h-21.2v14.1h21.2c3.9 0 7.1-3.2 7.1-7.1 0-3.8-3.2-7-7.1-7z" fill="#424244" opacity=".11"/><path d="m515.2 245.8 10.8 15.2c.1.1.2.1.3.1 0 0 0 0 .1-.1l11-15c4.4-6.1 3.1-14.6-3-19.1-6.1-4.4-14.6-3.1-19.1 3-3.6 4.8-3.4 11.2-.1 15.9z" fill="#ee5b30"/><path d="m519.1 238.3 7.1 9.9c0 .1.1.1.2 0l7.2-9.8c2.9-4 2-9.6-2-12.5s-9.6-2-12.5 2c-2.3 3.1-2.2 7.4 0 10.4z" fill="#f69c7c"/><path d="m522.3 232.1 4 5.6h.1l4-5.5c1.6-2.2 1.1-5.4-1.1-7s-5.4-1.1-7 1.1c-1.3 1.7-1.2 4.1 0 5.8z" fill="#e7dfcb"/><path clip-rule="evenodd" d="m152.4 252.7 3.4-9.2 9.2-3.4-9.2-3.4-3.4-9.2-3.4 9.2-9.2 3.4 9.2 3.4z" fill="#80718f" fill-rule="evenodd" opacity=".5"/><path clip-rule="evenodd" d="m443.6 145.4 3.4-9.2 9.2-3.4-9.2-3.4-3.4-9.2-3.4 9.2-9.2 3.4 9.2 3.4z" fill="#80718f" fill-rule="evenodd" opacity=".5"/><path clip-rule="evenodd" d="m429.7 221.1 2.1-5.8 5.8-2.1-5.8-2.1-2.1-5.8-2.1 5.8-5.8 2.1 5.8 2.1z" fill="#dbe8f1" fill-rule="evenodd" opacity=".5"/><path clip-rule="evenodd" d="m208.4 213.1 2.2-6 6-2.2-6-2.2-2.2-6-2.2 6-6 2.2 6 2.2z" fill="#c9dbe6" fill-rule="evenodd" opacity=".5"/><path clip-rule="evenodd" d="m469.5 99.4 2.2-6 6-2.2-6-2.2-2.2-6-2.2 6-6 2.2 6 2.2z" fill="#c9dbe6" fill-rule="evenodd" opacity=".5"/><path clip-rule="evenodd" d="m323.2 294.8 2.2-6 6-2.2-6-2.2-2.2-6-2.2 6-6 2.2 6 2.2z" fill="#c9dbe6" fill-rule="evenodd" opacity=".5"/><path clip-rule="evenodd" d="m493.5 56.6 1.9-5.3 5.3-1.9-5.3-1.9-1.9-5.3-1.9 5.3-5.3 1.9 5.3 1.9z" fill="#ff9770" fill-rule="evenodd"/><path clip-rule="evenodd" d="m201.2 93.7 1.9-5.3 5.3-1.9-5.3-1.9-1.9-5.3-1.9 5.3-5.3 1.9 5.3 1.9z" fill="#ff9770" fill-rule="evenodd"/><path clip-rule="evenodd" d="m211.8 267.1 1.9-5.3 5.3-1.9-5.3-1.9-1.9-5.3-1.9 5.3-5.3 1.9 5.3 1.9z" fill="#ff9770" fill-rule="evenodd"/><path clip-rule="evenodd" d="m211.8 22.8 1.2-3.4 3.4-1.2-3.4-1.2-1.2-3.4-1.2 3.4-3.4 1.2 3.4 1.2z" fill="#ff9770" fill-rule="evenodd"/><path clip-rule="evenodd" d="m493 261.1 1.2-3.4 3.4-1.2-3.4-1.2-1.2-3.4-1.2 3.4-3.4 1.2 3.4 1.2z" fill="#ff9770" fill-rule="evenodd"/><path clip-rule="evenodd" d="m419.2 286.6 1.2-3.4 3.4-1.2-3.4-1.2-1.2-3.4-1.2 3.4-3.4 1.2 3.4 1.2z" fill="#80718f" fill-rule="evenodd" opacity=".5"/><path clip-rule="evenodd" d="m192.6 157.2 1.2-3.4 3.4-1.2-3.4-1.2-1.2-3.4-1.2 3.4-3.4 1.2 3.4 1.2z" fill="#c9dbe6" fill-rule="evenodd" opacity=".5"/><path clip-rule="evenodd" d="m243.8 291.2 1.2-3.4 3.4-1.2-3.4-1.2-1.2-3.4-1.2 3.4-3.4 1.2 3.4 1.2z" fill="#dbe8f1" fill-rule="evenodd" opacity=".5"/><path clip-rule="evenodd" d="m443.6 46.2 1.2-3.4 3.4-1.2-3.4-1.2-1.2-3.4-1.2 3.4-3.4 1.2 3.4 1.2z" fill="#dbe8f1" fill-rule="evenodd" opacity=".5"/><path clip-rule="evenodd" d="m254.3 28.1 1.9-5.3 5.3-1.9-5.3-1.9-1.9-5.3-1.9 5.3-5.3 1.9 5.3 1.9z" fill="#dbe8f1" fill-rule="evenodd" opacity=".5"/><path clip-rule="evenodd" d="m454.2 265.7 1.9-5.3 5.3-1.9-5.3-1.9-1.9-5.3-1.9 5.3-5.3 1.9 5.3 1.9z" fill="#dbe8f1" fill-rule="evenodd" opacity=".5"/><path clip-rule="evenodd" d="m376.8 265.7 1.9-5.3 5.3-1.9-5.3-1.9-1.9-5.3-1.9 5.3-5.3 1.9 5.3 1.9z" fill="#80718f" fill-rule="evenodd" opacity=".5"/><path clip-rule="evenodd" d="m188 49.7 1.9-5.3 5.3-1.9-5.3-1.9-1.9-5.3-1.9 5.3-5.3 1.9 5.3 1.9z" fill="#80718f" fill-rule="evenodd" opacity=".5"/><path clip-rule="evenodd" d="m357.9 232.8 1.8-5 5-1.8-5-1.8-1.8-5.1-1.8 5.1-5.1 1.8 5.1 1.8z" fill="#ff9770" fill-rule="evenodd"/><path clip-rule="evenodd" d="m469.5 192.3 2.8-7.5 7.5-2.8-7.5-2.8-2.8-7.6-2.8 7.6-7.6 2.8 7.6 2.8z" fill="#ff9770" fill-rule="evenodd"/><path d="m101.4 199.8v-4.3c0-3.3 2.7-5.9 6-5.9h37.5c3.3 0 6 2.7 6 5.9v4.3z" fill="#4e7285"/><path d="m144.9 189.6h-11v10.2h17v-4.3c0-3.2-2.7-5.9-6-5.9z" fill="#424244" opacity=".11"/><path clip-rule="evenodd" d="m101.6 194.3h49.1c-.6-2.7-3-4.6-5.8-4.6h-37.5c-2.8-.1-5.2 1.9-5.8 4.6z" fill="#315562" fill-rule="evenodd" opacity=".51"/><path clip-rule="evenodd" d="m164.3 190.8h-76.4c-4.4 0-8-3.6-8-8v-20.6c0-4.4 3.6-8 8-8h76.4c4.4 0 8 3.6 8 8v20.6c0 4.4-3.6 8-8 8z" fill="#4f687a" fill-rule="evenodd"/><path d="m114.6 139.6c-1 4.2-2.1 8.4-3.1 12.7h28.9c-1-4.2-2.1-8.4-3.1-12.7-7.6 0-15.2 0-22.7 0z" fill="#255664"/><path d="m174.7 134.7v-56.9c0-2.5-2-4.6-4.6-4.6h-90.6c-1.3 0-2.4 1.1-2.4 2.4v59.1z" fill="#255664"/><path d="m125.7 152.3h14.6c-1-4.2-2.1-8.4-3.1-12.7-3.8 0-7.7 0-11.5 0z" fill="#273b42" opacity=".07"/><path d="m142.1 152.1h-32.5c-.8 0-1.5.8-1.5 1.8v.7h35.4v-.7c.1-1.1-.5-1.8-1.4-1.8z" fill="#255664"/><path d="m77.1 134.7v7c0 1.3 1.1 2.4 2.4 2.4h92.8c1.3 0 2.4-1.1 2.4-2.4v-7z" fill="#697f92"/><circle cx="126.1" cy="138.5" fill="#dbe8f1" r="1.7"/><path d="m81.3 128v-48.7c0-1.4 1.1-2.5 2.5-2.5h84.6c1.4 0 2.5 1.1 2.5 2.5v48.7c0 1.4-1.1 2.5-2.5 2.5h-84.6c-1.4 0-2.5-1.1-2.5-2.5z" fill="url(#h)"/><g style="clip-path:url(#i);opacity:.08;fill:none;stroke:#fff;stroke-width:3;stroke-miterlimit:10"><path d="m77.2 68.1h97.5"/><path d="m77.2 75.7h97.5" opacity=".9336"/><path d="m77.2 83.4h97.5" opacity=".8673"/><path d="m77.2 91h97.5" opacity=".8009"/><path d="m77.2 98.6h97.5" opacity=".7345"/><path d="m77.2 106.3h97.5" opacity=".6682"/><path d="m77.2 113.9h97.5" opacity=".6018"/><path d="m77.2 121.6h97.5" opacity=".5355"/><path d="m77.2 129.2h97.5" opacity=".4691"/><path d="m77.2 136.8h97.5" opacity=".4027"/><path d="m77.2 144.5h97.5" opacity=".3364"/><path d="m77.2 152.1h97.5" opacity=".27"/></g><g clip-rule="evenodd" fill-rule="evenodd"><path d="m162.5 161.8h-73.6c-2.6 0-4.6 2.1-4.6 4.6v15.4c0 2.6 2.1 4.6 4.6 4.6h16.3l4.2-4.6h32.6l4.2 4.6h16.3c2.6 0 4.6-2.1 4.6-4.6v-15.4c.1-2.5-2-4.6-4.6-4.6z" fill="#315562"/><path d="m162.5 158.7h-73.6c-2.6 0-4.6 2.1-4.6 4.6v15.4c0 2.6 2.1 4.6 4.6 4.6h16.3l4.2-4.6h32.6l4.2 4.6h16.3c2.6 0 4.6-2.1 4.6-4.6v-15.4c.1-2.5-2-4.6-4.6-4.6z" fill="#6d7f91"/><path d="m147.7 165.1h-1.9c-.4 0-.8-.4-.8-.8v-.9c0-.4.4-.8.8-.8h1.9c.4 0 .8.4.8.8v.9c0 .4-.3.8-.8.8" fill="#dbe8f1"/><path d="m152.8 165.1h-1.9c-.4 0-.8-.4-.8-.8v-.9c0-.4.4-.8.8-.8h1.9c.4 0 .8.4.8.8v.9c0 .4-.3.8-.8.8" fill="#315562"/><path d="m157.9 165h-1.9c-.4 0-.8-.4-.8-.8v-.9c0-.4.4-.8.8-.8h1.9c.4 0 .8.4.8.8v.9c0 .5-.3.8-.8.8" fill="#f79d79"/><path d="m163 165h-1.9c-.4 0-.8-.4-.8-.8v-.9c0-.4.4-.8.8-.8h1.9c.4 0 .8.4.8.8v.9c0 .4-.3.8-.8.8" fill="#315562"/><path d="m147.8 169.1h-1.9c-.4 0-.8-.4-.8-.8v-.9c0-.4.4-.8.8-.8h1.9c.4 0 .8.4.8.8v.9c0 .4-.4.8-.8.8" fill="#f79d79"/><path d="m152.9 169h-1.9c-.4 0-.8-.4-.8-.8v-.9c0-.4.4-.8.8-.8h1.9c.4 0 .8.4.8.8v.9c0 .5-.4.8-.8.8" fill="#dbe8f1"/><path d="m158 169h-1.9c-.4 0-.8-.4-.8-.8v-.9c0-.4.4-.8.8-.8h1.9c.4 0 .8.4.8.8v.9c0 .4-.4.8-.8.8" fill="#f79d79"/><path d="m163.1 169h-1.9c-.4 0-.8-.4-.8-.8v-.9c0-.4.4-.8.8-.8h1.9c.4 0 .8.4.8.8v.9c0 .4-.4.8-.8.8" fill="#dbe8f1"/><circle cx="91.1" cy="163.1" fill="#315562" r="1.8"/><circle cx="91.1" cy="168.7" fill="#315562" r="1.8"/><circle cx="91.1" cy="174.2" fill="#315562" r="1.8"/><circle cx="96.8" cy="163.1" fill="#315562" r="1.8"/><circle cx="96.8" cy="168.7" fill="#315562" r="1.8"/><circle cx="96.8" cy="174.2" fill="#315562" r="1.8"/><circle cx="102.6" cy="163.1" fill="#315562" r="1.8"/><circle cx="102.6" cy="168.7" fill="#315562" r="1.8"/><circle cx="102.6" cy="174.2" fill="#315562" r="1.8"/><circle cx="108.4" cy="163.1" fill="#315562" r="1.8"/><circle cx="108.4" cy="168.7" fill="#315562" r="1.8"/><circle cx="108.4" cy="174.2" fill="#315562" r="1.8"/><circle cx="114.2" cy="163.1" fill="#315562" r="1.8"/><circle cx="114.2" cy="168.7" fill="#315562" r="1.8"/><circle cx="114.2" cy="174.2" fill="#315562" r="1.8"/><circle cx="120" cy="163.1" fill="#315562" r="1.8"/><circle cx="120" cy="168.7" fill="#315562" r="1.8"/><circle cx="120" cy="174.2" fill="#315562" r="1.8"/><circle cx="125.7" cy="163.1" fill="#315562" r="1.8"/><circle cx="125.7" cy="168.7" fill="#315562" r="1.8"/><circle cx="125.7" cy="174.2" fill="#315562" r="1.8"/><circle cx="131.5" cy="163.1" fill="#315562" r="1.8"/><circle cx="131.5" cy="168.7" fill="#315562" r="1.8"/><circle cx="131.5" cy="174.2" fill="#315562" r="1.8"/><circle cx="137.3" cy="163.1" fill="#315562" r="1.8"/><circle cx="137.3" cy="168.7" fill="#315562" r="1.8"/><circle cx="137.3" cy="174.2" fill="#315562" r="1.8"/><path d="m163.1 177h-17.4c-.4 0-.7-.3-.7-.7v-1.2c0-.4.3-.7.7-.7h17.4c.4 0 .7.3.7.7v1.2c0 .3-.3.7-.7.7z" fill="#dbe8f1" opacity=".5"/><path d="m163.1 173.2h-17.4c-.4 0-.7-.3-.7-.7v-1.2c0-.4.3-.7.7-.7h17.4c.4 0 .7.3.7.7v1.2c0 .4-.3.7-.7.7z" fill="#655c80" opacity=".5"/><path d="m153.1 103.1h-4v-1h4zm.1 3.8c0 1.3-1 2.3-2.3 2.3s-2.3-1-2.3-2.3 1-2.3 2.3-2.3c1.2 0 2.3 1 2.3 2.3" fill="#7c8f97" opacity=".48"/><path d="m155.2 108.2h4v1h-4zm-.1-3.8c0-1.3 1-2.3 2.3-2.3s2.3 1 2.3 2.3-1 2.3-2.3 2.3-2.3-1-2.3-2.3" fill="#7c8f97" opacity=".48"/><path d="m158.4 91h4.6v1.7h-14v-1.7zm-9.4-3.1h17.7v1.7h-17.7zm0-3.1h12.3v1.7h-12.3zm.2 9.4h17.7v1.7h-17.7zm0 3.2h12.1v1.7h-12.1z" fill="#dbe8f1" opacity=".48"/></g><path d="m110.2 128.6c13.6 0 24.6-11 24.6-24.6s-11-24.6-24.6-24.6-24.6 11-24.6 24.6c0 13.5 11 24.6 24.6 24.6z" fill="#fff" opacity=".1"/><path d="m110.2 126.9c12.6 0 22.9-10.3 22.9-22.9s-10.2-22.9-22.9-22.9c-12.6 0-22.9 10.3-22.9 22.9s10.3 22.9 22.9 22.9z" fill="#f79d79"/><path clip-rule="evenodd" d="m96.1 122c3.9 3.1 8.8 4.9 14.1 4.9 2.3 0 4.6-.3 6.7-1-.7-.3-1.3-.7-1.9-1.2-.8-.8-1.2-1.8-.9-2.8.3-1.3.4-2.6-1.4-2.5-1.7.1-1.4 2.1-2.7 2.5-1.7.6-1.6-2-1.3-2.9.5-1.7 1-3.5 1.7-5.1.5-1.2 1.1-2.6.5-3.8-.5-1.2-1.8-1.7-3.1-1.7-1.2.1-2.4.7-3.4 1.5-1.2.9-2.4 2-3.9 1.9-1.3-.1-2.3-1.4-2.4-2.6-.1-1.3.5-2.5 1.3-3.5 1-1 5.9-2.5 5.1-4.3-.7-1.4.5-1.5 1.1-2.7.4-.7.4-1.7-.1-2.3-.6-.7-1.8-.8-2.7-.5-1 .2-4.6 1.3-3.6-1.1.4-.9 1-1.8-.1-2.5-.6-.4-1.7-.3-2.3 0 0 0 0 0-.1 0-3.1 1-6 3-8.5 5.1-.7 2.1-1 4.4-1 6.7 0 3.5.8 6.8 2.2 9.7.7-.1 1.4-.2 2.1-.2s1.5-.1 2.1.2.6.9.9 1.5c.6 1.5 2.3.2 2.9 1.6.9 1.7-.5 3.4-1.3 4.8.1 0 0 .1 0 .3z" fill="#f36c3d" fill-rule="evenodd"/><path clip-rule="evenodd" d="m133.1 104c0-12.6-10.2-22.9-22.9-22.9-.8 0-1.6 0-2.4.1 1.4.2 2.9.4 4.3.6.7.1 1.5.2 1.9.9.5.7.1 1.7-.5 2.3s-1.4.9-2.2 1.4c-.7.4-1.4 1.1-1.6 1.9-.1 1.2 1 2.2 2.1 2.4 1.2.2 2.3-.2 3.4-.7s2.2-1 3.3-1c.4 0 .9.1 1.2.4.8.7.3 1.9-.3 2.7-.7.8-1.6 1.4-1.8 2.4-.3 1.2.8 2.5 2 2.9 1.2.3 2.6 0 3.8-.6.4-.2.9-.4 1.3-.4.9 0 1.7.8 2 1.6.3.9.1 1.8 0 2.8-.2 1.3-.6 2.8-1.8 3.5-.5.3-1.2.4-1.7.7-1.2.7-1.5 2.4-1.6 3.8 0 .3 0 .6.1.9.1.2.2.4.4.5 1.2 1.2 7.8 1 9.4 2.1 1.1-2.8 1.6-5.5 1.6-8.3z" fill="#f36c3d" fill-rule="evenodd"/><path clip-rule="evenodd" d="m87.9 109.1c2.3 10.2 11.4 17.8 22.3 17.8 12.6 0 22.9-10.2 22.9-22.9 0-.6 0-1.2-.1-1.8-7.1 5.2-18.1 8.6-30.5 8.6-5.1 0-10.1-.6-14.6-1.7z" fill="#1c272a" fill-rule="evenodd" opacity=".1342"/><path clip-rule="evenodd" d="m133.8 113.5h-6.6c-.6 0-1.1-.5-1.1-1.1v-.1h8.9v.1c0 .6-.5 1.1-1.2 1.1z" fill="#3d5a66" fill-rule="evenodd"/><circle cx="129.9" cy="102.5" fill="#273b42" r="11.5"/><path d="m153.4 125.6c-1.4 1.4-3.6 1.4-5 .1l-11-10.6 4.9-5.1 11 10.6c1.4 1.4 1.4 3.6.1 5z" fill="#255664"/><path d="m130 88.2c-8 0-14.6 6.5-14.6 14.6 0 8 6.5 14.6 14.6 14.6s14.6-6.5 14.6-14.6-6.5-14.6-14.6-14.6zm0 25.2c-5.9 0-10.6-4.8-10.6-10.6 0-5.9 4.8-10.6 10.6-10.6 5.9 0 10.6 4.8 10.6 10.6.1 5.8-4.7 10.6-10.6 10.6z" fill="#697f92"/><g clip-path="url(#j)"><g fill="none"><path d="m133.6 90.3v25.3" opacity=".13" stroke="#fff"/><path d="m131.2 90.3v25.3" opacity=".13" stroke="#fff"/><path d="m128.7 90.3v25.3" opacity=".13" stroke="#fff"/><path d="m126.2 90.3v25.3" opacity=".13" stroke="#fff"/><path d="m123.7 90.3v25.3" opacity=".13" stroke="#fff"/><path d="m121.3 90.3v25.3" opacity=".13" stroke="#fff"/><path d="m138.6 90.3v25.3" opacity=".13" stroke="#fff"/><path d="m136.1 90.3v25.3" opacity=".13" stroke="#fff"/><path d="m117.3 99.2h25.3" opacity=".13" stroke="#fff"/><path d="m117.3 101.7h25.3" opacity=".13" stroke="#fff"/><path d="m117.3 104.2h25.3" opacity=".13" stroke="#fff"/><path d="m117.3 106.6h25.3" opacity=".13" stroke="#fff"/><path d="m117.3 109.1h25.3" opacity=".13" stroke="#fff"/><path d="m117.3 111.6h25.3" opacity=".13" stroke="#fff"/><path d="m117.3 94.3h25.3" opacity=".13" stroke="#fff"/><path d="m117.3 96.7h25.3" opacity=".13" stroke="#fff"/><path d="m117.3 108.5 6.2-4.7 6.5-2.2 4.8-4.1" stroke="#f26c3d"/></g><path d="m135.7 99.4 1.3-3.8-3.9.7z" fill="#f26c3d"/><path d="m120.7 107.2h5.6v8h-5.6z" fill="#ff6229"/><path d="m127.1 104.8h5.6v10.4h-5.6z" fill="#ff6229"/><path d="m133.4 100.9h5.6v14.4h-5.6z" fill="#ff6229"/><path d="m120.7 107.2h5.6v8h-5.6z" fill="#ff6229"/><path d="m127.1 104.8h5.6v10.4h-5.6z" fill="#ff6229"/><path d="m137.9 100.9h1.1v14.4h-1.1z" fill="#f69b78"/><path d="m131.5 104.8h1.1v10.4h-1.1z" fill="#f69b78"/><path d="m125.2 107.2h1.1v8h-1.1z" fill="#f69b78"/></g><path clip-path="url(#j)" d="m137.2 91 1.8 2.4-19.9 15.3-1.8-2.3z" fill="url(#l)"/><path clip-path="url(#j)" d="m140.4 95.4 1.8 2.3-19.9 15.4-1.8-2.3z" fill="url(#m)"/><path d="m137.5 113.7-1.7.9c-.2.1-.6 0-.7-.2-.1-.2 0-.6.2-.7l1.7-.9c.2-.1.6 0 .7.2.1.3 0 .6-.2.7z" fill="#dae7f0"/><circle cx="138.9" cy="111.7" fill="#dae7f0" r=".5"/><circle cx="140.3" cy="110" fill="#dae7f0" r=".5"/><path clip-rule="evenodd" d="m129.9 93.7-.4 1.1-1.1.4 1.1.4.4 1.1.4-1.1 1.1-.4-1.1-.4z" fill="#ff6229" fill-rule="evenodd"/><path clip-rule="evenodd" d="m123.5 97.7-.4 1-1 .4 1 .4.4 1 .4-1 1-.4-1-.4z" fill="#c9dbe6" fill-rule="evenodd"/><path d="m55.4 225.6v-3.9c0-3 2.4-5.4 5.5-5.4h34.4c3 0 5.5 2.4 5.5 5.4v3.9z" fill="#4e7285"/><path d="m95.2 216.3h-10.1v9.3h15.5v-3.9c0-3-2.4-5.4-5.4-5.4z" fill="#424244" opacity=".11"/><path clip-rule="evenodd" d="m59.7 216.4c-2.4.5-4.2 2.6-4.3 5.1h45.2c-.1-2.5-1.9-4.6-4.3-5.1z" fill="#315562" fill-rule="evenodd" opacity=".51"/><path d="m54.5 106.4-6.1-15.3-1.6.6 6.1 15.3z" fill="#726b65"/><path d="m45.2 94.3c1.8 1.2 4.2.8 5.4-1s.8-4.2-1-5.4-4.2-.8-5.4 1c-1.2 1.7-.8 4.2 1 5.4z" fill="#f1704d"/><path d="m72.7 164.2h11c5.1 0 9.3 4.2 9.3 9.3v25.5c0 2.2-1.8 4-4 4h-6.3c-2.2 0-4-1.8-4-4v-21.5h-6.5s1-13.3.5-13.3z" fill="#ece6e1"/><path d="m52.6 164.2h11c5.1 0 9.3 4.2 9.3 9.3v25.5c0 2.2-1.8 4-4 4h-6.3c-2.2 0-4-1.8-4-4v-21.5h-6.5s1-13.3.5-13.3z" fill="#ece6e1"/><ellipse cx="57.2" cy="117.5" fill="#ece6e1" rx="19.1" ry="19.1"/><g clip-path="url(#n)"><ellipse cx="80.9" cy="113.8" fill="#b2c9d2" rx="13.5" ry="13.5"/><path d="m80.6 100.3c-3 .1-5.7 1.1-7.9 2.8 1.8 2.2 2.9 5.1 3 8.1.1 4.5-2 8.5-5.3 11 2.5 3.1 6.5 5.1 10.8 5 7.4-.2 13.3-6.3 13.2-13.8-.2-7.3-6.4-13.2-13.8-13.1z" fill="#a2b8c5"/></g><path d="m76 175.3-1-29.7c0-9.1-6.5-16.5-15.6-16.5h-6.2c-9.1 0-16.6 7.5-16.6 16.6v20.9c0 4.8 3.9 8.7 8.7 8.7 11.5.1 30.5.2 30.7 0z" fill="#ece6e1"/><path d="m75.9 160.7s-8 3.2-13.1-2.9.7 4 .7 4 4.4 4.4 12.6 1.6" fill="#e26d60"/><path d="m39.6 166.3 19-.5c2.8-.1 5.1-2.5 5-5.3l-.6-20.7c-.1-2.8-2.5-5.1-5.3-5l-19 .5c-2.8.1-5.1 2.5-5 5.3l.6 20.7c0 2.8 2.4 5.1 5.3 5z" fill="#ef6b42"/><path d="m88.6 164.8c-.8.5-1.7.8-2.7.8h-1.1c-7.6.3-14.6-4.6-17-11.8l-4.1-12.5c-1-2.9.6-6.1 3.6-7.1 2.9-1 6.1.6 7.1 3.6l4.1 12.5c.8 2.5 3.3 4.2 5.9 4.1h1.1c3.1-.1 5.7 2.3 5.8 5.4.2 2.1-.9 4-2.7 5z" fill="#ece6e1"/><path d="m88.6 164.8c-.8.5-1.7.8-2.7.8h-1.1c-7.6.3-14.6-4.6-17-11.8l-4.1-12.5c-1-2.9.6-6.1 3.6-7.1 2.9-1 6.1.6 7.1 3.6l4.1 12.5c.8 2.5 3.3 4.2 5.9 4.1h1.1c3.1-.1 5.7 2.3 5.8 5.4.2 2.1-.9 4-2.7 5z" fill="#ece6e1" opacity=".3"/><path d="m34.3 161.6 17-.5c1.8-.1 3.3-1.6 3.2-3.4l-.1-2.4c-.1-1.8-1.6-3.3-3.4-3.2l-17 .5z" fill="#f69c7c" opacity=".42"/><path d="m48.9 149.3c0 .8.7 1.5 1.5 1.5s1.5-.7 1.5-1.5-.7-1.5-1.5-1.5c-.9 0-1.5.7-1.5 1.5z" fill="#e7dfcb"/><path d="m43.8 149.4c0 .8.7 1.5 1.5 1.5s1.5-.7 1.5-1.5-.7-1.5-1.5-1.5c-.9 0-1.5.7-1.5 1.5z" fill="#e7dfcb"/><path d="m51.2 159.3c.5 0 .9-.5.9-1l-.1-3.5c0-.5-.5-.9-1-.9-.5 0-.9.5-.9 1l.1 3.5c.1.5.5.9 1 .9z" fill="#fff3ed"/><path d="m47.1 159.5c.5 0 .9-.5.9-1l-.1-3.5c0-.5-.5-.9-1-.9-.5 0-.9.5-.9 1l.1 3.5c0 .4.4.9 1 .9z" fill="#fff3ed"/><path d="m42.9 159.6c.5 0 .9-.5.9-1l-.1-3.5c0-.5-.5-.9-1-.9-.5 0-.9.5-.9 1l.1 3.5c0 .5.5.9 1 .9z" fill="#fff3ed"/><path d="m38.8 159.7c.5 0 .9-.5.9-1l-.1-3.5c0-.5-.5-.9-1-.9-.5 0-.9.5-.9 1l.1 3.5c0 .5.4.9 1 .9z" fill="#fff3ed"/><path d="m36.6 150.6 4.8-.1c.5 0 1-.5.9-1 0-.5-.5-1-1-.9l-4.8.1c-.5 0-1 .5-.9 1 0 .5.5.9 1 .9z" fill="#f69c7c"/><path clip-path="url(#o)" d="m32.6 146.2 14.5-.4c3.2-.1 5.7-2.7 5.6-5.9l-.1-4.9-20.3.6z" fill="#766991"/><path d="m61.6 132.1c-10.6 0-19.1-8.6-19.1-19.1 0-4.1 1.3-8 3.6-11.1-4.8 3.5-8 9.1-8 15.5 0 10.6 8.6 19.1 19.1 19.1 6.4 0 12.1-3.2 15.6-8-3.2 2.3-7 3.6-11.2 3.6z" fill="#ece6e1" opacity=".3"/><path d="m106.3 216.9h-60.2c-3.9 0-7.1-3.2-7.1-7.1 0-3.9 3.2-7.1 7.1-7.1h60.2c3.9 0 7.1 3.2 7.1 7.1-.1 3.9-3.2 7.1-7.1 7.1z" fill="#5a808c"/><path d="m52.4 211.2h-6.6c-.6 0-1.1-.5-1.1-1.1 0-.6.5-1.1 1.1-1.1h6.6c.6 0 1.1.5 1.1 1.1 0 .6-.5 1.1-1.1 1.1z" fill="#4e7285"/><circle cx="56.5" cy="209.9" fill="#e7dfcb" r="1.2"/><circle cx="60.5" cy="210" fill="#e7dfcb" r="1.2"/><circle cx="64.5" cy="210" fill="#e7dfcb" r="1.2"/><path d="m68.6 187.3c-1.1-.9-11.4-.3-11.7-.3-.4 0-10.6-.5-11.7.3 0 0 10.1 1.1 9.7 16.4h2 2c-.4-15.3 9.7-16.4 9.7-16.4z" fill="#473f53"/><path d="m73.2 187.4h-32.1c-3.6 0-6.6-2.9-6.6-6.6 0-3.6 2.9-6.6 6.6-6.6h32.2c3.6 0 6.6 2.9 6.6 6.6-.1 3.6-3 6.6-6.7 6.6z" fill="#7d738c"/><path d="m73.4 174.3h-16.9v13.1h16.8c3.5 0 6.5-2.9 6.5-6.5v-.2c0-3.5-2.9-6.4-6.4-6.4z" fill="#424244" opacity=".18"/><path d="m106.3 202.7h-21.2v14.1h21.2c3.9 0 7.1-3.2 7.1-7.1-.1-3.8-3.2-7-7.1-7z" fill="#424244" opacity=".11"/><path d="m66.9 249.5 10.8 15.2c.1.1.2.1.3.1 0 0 0 0 .1-.1l11-15c4.4-6.1 3.1-14.6-3-19.1-6.1-4.4-14.6-3.1-19.1 3-3.6 4.8-3.4 11.3-.1 15.9z" fill="#ee5b30"/><path d="m70.8 242.1 7.1 9.9c0 .1.1.1.2 0l7.2-9.8c2.9-4 2-9.6-2-12.5s-9.6-2-12.5 2c-2.3 3.1-2.2 7.3 0 10.4z" fill="#f69c7c"/><path d="m74 235.9 4 5.6h.1l4-5.5c1.6-2.2 1.1-5.4-1.1-7s-5.4-1.1-7 1.1c-1.3 1.7-1.3 4.1 0 5.8z" fill="#e7dfcb"/><path d="m319.7 199.4v-6.7c0-5.2 4.2-9.4 9.4-9.4h59.1c5.2 0 9.4 4.2 9.4 9.4v6.7z" fill="#4e7285"/><path d="m388.1 183.4h-17.3v16.1h26.7v-6.7c0-5.2-4.2-9.4-9.4-9.4z" fill="#424244" opacity=".11"/><path clip-rule="evenodd" d="m319.9 190.7h77.4c-.9-4.2-4.7-7.3-9.1-7.3h-59.2c-4.4 0-8.2 3.1-9.1 7.3z" fill="#315562" fill-rule="evenodd" opacity=".51"/><path clip-rule="evenodd" d="m418.6 185.2h-120.3c-7 0-12.6-5.6-12.6-12.6v-32.4c0-7 5.6-12.6 12.6-12.6h120.2c7 0 12.6 5.6 12.6 12.6v32.4c0 7-5.6 12.6-12.5 12.6z" fill="#4f687a" fill-rule="evenodd"/><path d="m340.3 104.7c-1.6 6.6-3.2 13.3-4.9 19.9h45.5c-1.6-6.6-3.3-13.3-4.9-19.9-11.9 0-23.8 0-35.7 0z" fill="#255664"/><path d="m435 96.9v-89.6c0-4-3.2-7.2-7.2-7.2h-142.6c-2.1 0-3.8 1.7-3.8 3.8v93z" fill="#255664"/><path d="m357.9 124.6h23c-1.6-6.6-3.3-13.3-4.9-19.9-6 0-12.1 0-18.1 0z" fill="#273b42" opacity=".07"/><path d="m383.7 124.2h-51.1c-1.3 0-2.3 1.2-2.3 2.8v1h55.8v-1c0-1.5-1.1-2.8-2.4-2.8z" fill="#255664"/><path d="m281.3 96.9v11c0 2.1 1.7 3.8 3.8 3.8h146c2.1 0 3.8-1.7 3.8-3.8v-11z" fill="#697f92"/><circle cx="358.5" cy="102.9" fill="#dbe8f1" r="2.6"/><path d="m287.9 86.4v-76.7c0-2.2 1.8-3.9 3.9-3.9h133.2c2.2 0 3.9 1.8 3.9 3.9v76.6c0 2.2-1.8 3.9-3.9 3.9h-133.2c-2.1.1-3.9-1.7-3.9-3.8z" fill="url(#p)"/><g style="clip-path:url(#q);opacity:.08;fill:none;stroke:#fff;stroke-width:3;stroke-miterlimit:10"><path d="m281.4-7.9h153.6"/><path d="m281.4 4.1h153.6" opacity=".9336"/><path d="m281.4 16.1h153.6" opacity=".8673"/><path d="m281.4 28.1h153.6" opacity=".8009"/><path d="m281.4 40.2h153.6" opacity=".7345"/><path d="m281.4 52.2h153.6" opacity=".6682"/><path d="m281.4 64.2h153.6" opacity=".6018"/><path d="m281.4 76.2h153.6" opacity=".5355"/><path d="m281.4 88.3h153.6" opacity=".4691"/><path d="m281.4 100.3h153.6" opacity=".4027"/><path d="m281.4 112.3h153.6" opacity=".3364"/><path d="m281.4 124.3h153.6" opacity=".27"/></g><path clip-rule="evenodd" d="m415.8 139.6h-115.8c-4 0-7.3 3.3-7.3 7.3v24.2c0 4 3.3 7.3 7.3 7.3h25.6l6.6-7.3h51.4l6.6 7.3h25.6c4 0 7.3-3.3 7.3-7.3v-24.2c0-4.1-3.3-7.3-7.3-7.3z" fill="#315562" fill-rule="evenodd"/><path clip-rule="evenodd" d="m415.8 134.7h-115.8c-4 0-7.3 3.3-7.3 7.3v24.2c0 4 3.3 7.3 7.3 7.3h25.6l6.6-7.3h51.4l6.6 7.3h25.6c4 0 7.3-3.3 7.3-7.3v-24.2c0-4-3.3-7.3-7.3-7.3z" fill="#6d7f91" fill-rule="evenodd"/><path clip-rule="evenodd" d="m392.5 144.8h-3c-.7 0-1.3-.6-1.3-1.3v-1.4c0-.7.6-1.3 1.3-1.3h3c.7 0 1.3.6 1.3 1.3v1.4c0 .7-.6 1.3-1.3 1.3" fill="#dbe8f1" fill-rule="evenodd"/><path clip-rule="evenodd" d="m400.6 144.7h-3c-.7 0-1.3-.6-1.3-1.3v-1.4c0-.7.6-1.3 1.3-1.3h3c.7 0 1.3.6 1.3 1.3v1.4c-.1.7-.6 1.3-1.3 1.3" fill="#315562" fill-rule="evenodd"/><path clip-rule="evenodd" d="m408.6 144.6h-3c-.7 0-1.3-.6-1.3-1.3v-1.3c0-.7.6-1.3 1.3-1.3h3c.7 0 1.3.6 1.3 1.3v1.4c0 .7-.6 1.2-1.3 1.2" fill="#f79d79" fill-rule="evenodd"/><path clip-rule="evenodd" d="m416.6 144.6h-3c-.7 0-1.3-.6-1.3-1.3v-1.3c0-.7.6-1.3 1.3-1.3h3c.7 0 1.3.6 1.3 1.3v1.4c0 .6-.6 1.2-1.3 1.2" fill="#315562" fill-rule="evenodd"/><path clip-rule="evenodd" d="m392.6 151h-3c-.7 0-1.3-.6-1.3-1.3v-1.4c0-.7.6-1.3 1.3-1.3h3c.7 0 1.3.6 1.3 1.3v1.4c0 .8-.6 1.3-1.3 1.3" fill="#f79d79" fill-rule="evenodd"/><path clip-rule="evenodd" d="m400.6 151h-3c-.7 0-1.3-.6-1.3-1.3v-1.4c0-.7.6-1.3 1.3-1.3h3c.7 0 1.3.6 1.3 1.3v1.4c0 .7-.6 1.3-1.3 1.3" fill="#dbe8f1" fill-rule="evenodd"/><path clip-rule="evenodd" d="m408.6 150.9h-3c-.7 0-1.3-.6-1.3-1.3v-1.4c0-.7.6-1.3 1.3-1.3h3c.7 0 1.3.6 1.3 1.3v1.4c0 .7-.5 1.3-1.3 1.3" fill="#f79d79" fill-rule="evenodd"/><path clip-rule="evenodd" d="m416.7 150.8h-3c-.7 0-1.3-.6-1.3-1.3v-1.4c0-.7.6-1.3 1.3-1.3h3c.7 0 1.3.6 1.3 1.3v1.4c-.1.8-.6 1.3-1.3 1.3" fill="#dbe8f1" fill-rule="evenodd"/><circle clip-rule="evenodd" cx="303.3" cy="141.6" fill="#315562" fill-rule="evenodd" r="2.8"/><circle clip-rule="evenodd" cx="303.3" cy="150.4" fill="#315562" fill-rule="evenodd" r="2.8"/><circle clip-rule="evenodd" cx="303.3" cy="159.1" fill="#315562" fill-rule="evenodd" r="2.8"/><circle clip-rule="evenodd" cx="312.4" cy="141.6" fill="#315562" fill-rule="evenodd" r="2.8"/><circle clip-rule="evenodd" cx="312.4" cy="150.4" fill="#315562" fill-rule="evenodd" r="2.8"/><circle clip-rule="evenodd" cx="312.4" cy="159.1" fill="#315562" fill-rule="evenodd" r="2.8"/><circle clip-rule="evenodd" cx="321.5" cy="141.6" fill="#315562" fill-rule="evenodd" r="2.8"/><circle clip-rule="evenodd" cx="321.5" cy="150.4" fill="#315562" fill-rule="evenodd" r="2.8"/><circle clip-rule="evenodd" cx="321.5" cy="159.1" fill="#315562" fill-rule="evenodd" r="2.8"/><circle clip-rule="evenodd" cx="330.6" cy="141.6" fill="#315562" fill-rule="evenodd" r="2.8"/><circle clip-rule="evenodd" cx="330.6" cy="150.4" fill="#315562" fill-rule="evenodd" r="2.8"/><circle clip-rule="evenodd" cx="330.6" cy="159.1" fill="#315562" fill-rule="evenodd" r="2.8"/><circle clip-rule="evenodd" cx="339.7" cy="141.6" fill="#315562" fill-rule="evenodd" r="2.8"/><circle clip-rule="evenodd" cx="339.7" cy="150.4" fill="#315562" fill-rule="evenodd" r="2.8"/><circle clip-rule="evenodd" cx="339.7" cy="159.1" fill="#315562" fill-rule="evenodd" r="2.8"/><circle clip-rule="evenodd" cx="348.8" cy="141.6" fill="#315562" fill-rule="evenodd" r="2.8"/><circle clip-rule="evenodd" cx="348.8" cy="150.4" fill="#315562" fill-rule="evenodd" r="2.8"/><circle clip-rule="evenodd" cx="348.8" cy="159.1" fill="#315562" fill-rule="evenodd" r="2.8"/><circle clip-rule="evenodd" cx="357.9" cy="141.6" fill="#315562" fill-rule="evenodd" r="2.8"/><circle clip-rule="evenodd" cx="357.9" cy="150.4" fill="#315562" fill-rule="evenodd" r="2.8"/><circle clip-rule="evenodd" cx="357.9" cy="159.1" fill="#315562" fill-rule="evenodd" r="2.8"/><circle clip-rule="evenodd" cx="367" cy="141.6" fill="#315562" fill-rule="evenodd" r="2.8"/><circle clip-rule="evenodd" cx="367" cy="150.4" fill="#315562" fill-rule="evenodd" r="2.8"/><circle clip-rule="evenodd" cx="367" cy="159.1" fill="#315562" fill-rule="evenodd" r="2.8"/><circle clip-rule="evenodd" cx="376.1" cy="141.6" fill="#315562" fill-rule="evenodd" r="2.8"/><circle clip-rule="evenodd" cx="376.1" cy="150.4" fill="#315562" fill-rule="evenodd" r="2.8"/><circle clip-rule="evenodd" cx="376.1" cy="159.1" fill="#315562" fill-rule="evenodd" r="2.8"/><path clip-rule="evenodd" d="m416.8 163.4h-27.4c-.6 0-1.1-.5-1.1-1.1v-1.9c0-.6.5-1.1 1.1-1.1h27.4c.6 0 1.1.5 1.1 1.1v1.9c0 .6-.5 1.1-1.1 1.1z" fill="#dbe8f1" fill-rule="evenodd" opacity=".5"/><path clip-rule="evenodd" d="m416.8 157.5h-27.4c-.6 0-1.1-.5-1.1-1.1v-1.9c0-.6.5-1.1 1.1-1.1h27.4c.6 0 1.1.5 1.1 1.1v1.9c0 .6-.5 1.1-1.1 1.1z" fill="#655c80" fill-rule="evenodd" opacity=".5"/><path d="m350 29.5.7.7" fill="none" stroke="#fff" stroke-miterlimit="10"/><path d="m351.5 30.9 12.7 12.8" fill="none" stroke="#fff" stroke-dasharray="2.0605 1.0302" stroke-miterlimit="10"/><path d="m364.6 44 .7.7" fill="none" stroke="#fff" stroke-miterlimit="10"/><g clip-path="url(#r)"><g transform="matrix(1 0 0 -1 0 21)"><path d="m345.1-34.3c.8.2 3.9-4.2 4.3-6.2.3-1.3 2.3-10.7 6.1-28l-5.6-1.2c-4.1 18.7-6.1 28-6.1 28-.5 2 .5 7.2 1.3 7.4z" fill="#184560"/><path d="m348.3-33.5 7.1-34.9-3.1-.6-7.2 34.8z" fill="#254e66" mask="url(#s)"/><g fill="#e8806d"><path d="m347.4-58.8-.1.6 2.9.6.1-.6z" mask="url(#t)"/><path d="m345.7-50.7-.1.6 2.9.6.1-.6z" mask="url(#u)"/><path d="m343.8-42.3-.1.6 2.9.6.1-.6z" mask="url(#v)"/></g><path d="m346.7-41.7-.1.6 3.2.7c.1-.2.1-.4.2-.6z" fill="#f69c79" mask="url(#w)"/><path d="m348.6-50.1-.1.6 3.2.7c.1-.2.1-.4.2-.6z" fill="#f69c79" mask="url(#x)"/><path d="m350.3-58.2-.1.6 3.2.7c.1-.2.1-.4.2-.6z" fill="#f69c79" mask="url(#y)"/></g><path d="m350.5 75.1 1.2-.3-.3-1.2-1.2.3z" fill="none" stroke="#08324b" stroke-opacity=".22"/><path d="m350.9 76.8 1.2-.3-.3-1.2-1.2.3z" fill="none" stroke="#08324b" stroke-opacity=".22"/><g transform="translate(185 12)"><path d="m184.2 41.5h1.3v4.8h-1.3z" fill="#f27765" transform="matrix(.736 -.6769 .6769 .736 19.0611 136.7588)"/><path d="m189.3 47h1.3v4.8h-1.3z" fill="#f27765" transform="matrix(.736 -.6769 .6769 .736 16.6762 141.6285)"/><path d="m186.8 37.5-1.5 1.4-4.4-4.7c-.5-.5-.5-1.4.1-1.9l.6-.5z" fill="#7d8f97"/><path d="m189 37.4c-.9.8-2.3.8-3.1-.1l-5.5-5.9c-.8-.9-.8-2.3.1-3.1.9-.8 2.3-.8 3.1.1l5.5 6c.8.8.7 2.2-.1 3z" fill="#184560"/><path d="m201.9 53.9-.6.5c-.5.5-1.4.5-1.9-.1l-4.4-4.7 1.5-1.4z" fill="#7d8f97"/><path d="m204 53.8c-.9.8-2.3.8-3.1-.1l-5.5-6c-.8-.9-.8-2.3.1-3.1.9-.8 2.3-.8 3.1.1l5.5 6c.8.9.8 2.3-.1 3.1z" fill="#184560"/></g><g mask="url(#z)" transform="translate(94 62)"><g transform="translate(.259966 -2.857854)"><path d="m300.5-31.1c-8.4 5.6-16.6 4.5-20.8 3.9s-7.3 2.6-7.3 2.6l-1.6 1.5 7.9 14.8 32.1-29.5.4-.4c-2.3 1.6-10.7 7.1-10.7 7.1z" fill="#a6b1b9"/><g fill="#7d8f97"><path d="m279.8-28.8h.4v17.8h-.4z" transform="matrix(.736 -.6769 .6769 .736 87.3616 184.2785)"/><path d="m287.5-14.7-.4.3-11.9-12.9.4-.3z"/><path d="m288.8-15.8-.3.3-11.8-12.8.3-.3z"/></g></g></g><g transform="translate(95)"><path d="m304.2 59.4c.3 4.3-3.2 7.1-3.2 7.1l-1.6 1.5-14.2-9.2 32.1-29.5-7.5 9.7c-6.4 7.8-5.9 16.1-5.6 20.4z" fill="#a6b1b9"/><g fill="#7d8f97"><path d="m297.4 50.4h.4v17.8h-.4z" mask="url(#A)" transform="matrix(.736 -.6769 .6769 .736 38.4328 217.1491)"/><path d="m305.1 64.5-.3.3-11.9-12.9.4-.3z" mask="url(#B)"/><path d="m306.5 63.4-.3.3-11.8-12.9.3-.3z" mask="url(#C)"/></g></g><g fill="#e1e4e9" transform="translate(57.341479 36.242257)"><path d="m361.1-23.7c-.1.1-.3.1-.4.2-9 4.2-16 11.2-16 11.2l-29.8 27.3 3.8 4.2 44.3-40.8z"/><path d="m365-19.6c.1-.2.2-.3.2-.5l-2.1-2.2-44.4 40.8 4.1 4.4 29.8-27.4c0 .1 7.6-6.3 12.4-15.1z"/></g><path d="m375.2 57.5h1.8v5.7h-1.8z" fill="#08324b" transform="matrix(.736 -.6769 .6769 .736 58.3892 270.5191)"/><path d="m370.1 52h1.8v5.7h-1.8z" fill="#08324b" transform="matrix(.736 -.6769 .6769 .736 60.7741 265.6493)"/><path d="m345.3-20.2-2.4-2.6c-.2-.2-.2-.5 0-.6 1-.7 1.7-1.2 2.2-1.3.9-.4 2.2-.4 3.8 1.2 1.5 1.7 1.4 3 .9 3.9-.2.4-.7 1.1-1.5 2.1-.2.2-.5.2-.6 0z" fill="#a2b9c7" transform="translate(68.338475 40.951327)"/><g fill="#bfcdd6"><g transform="translate(88.761468 37.027102)"><path d="m321.5-13.1.5-.5-3.7-4c-.2.1-.4.3-.6.4z"/><path d="m325.2-9.1c.2-.2.3-.3.5-.5l-3.7-4-.5.5z"/></g><path d="m401.2 25.2h.8v5.7h-.8z" transform="matrix(.736 -.6769 .6769 .736 87.0343 279.2512)"/><path d="m263-5.4h.8v5.7h-.8z" transform="matrix(.736 -.6769 .6769 .736 202.486553 214.685302)"/><path d="m266.9-1.3h.8v5.7h-.8z" transform="matrix(.736 -.6769 .6769 .736 200.680753 218.372502)"/><path d="m234.1 1h.8v5.7h-.8z" transform="matrix(.736 -.6769 .6769 .736 212.509645 196.777402)"/><path d="m237.9 5.1h.8v5.7h-.8z" transform="matrix(.736 -.6769 .6769 .736 210.703945 200.464502)"/><path d="m205.9 7.4h.8v5.7h-.8z" transform="matrix(.736 -.6769 .6769 .736 221.954537 179.401102)"/><path d="m209.8 11.5h.8v5.7h-.8z" transform="matrix(.736 -.6769 .6769 .736 220.148837 183.088202)"/><path d="m280.9-9.8h47.2v.9h-47.2z" transform="matrix(.736 -.6769 .6769 .736 175.478068 252.501679)"/></g><path d="m378.6 63.1-10.1-11 5.5-5.1c2.6-2.4 7.6 3.1 7.6 3.1s5.1 5.5 2.5 7.9z" fill="#345265"/><path d="m373.4 49.9h.9v14.9h-.9z" fill="#4f6a7a" transform="matrix(.736 -.6769 .6769 .736 59.8681 268.2245)"/><ellipse cx="414.4" cy="25.4" fill="#bfcdd6" rx=".4" ry=".4"/><ellipse cx="413" cy="23.9" fill="#bfcdd6" rx=".4" ry=".4"/><ellipse cx="410.8" cy="21.6" fill="#bfcdd6" rx=".4" ry=".4"/><ellipse cx="409.5" cy="20.1" fill="#bfcdd6" rx=".4" ry=".4"/><path d="m408.2 32.1-2.6 2.4c-.2.2-.5.2-.6 0-.2-.2-.2-.5 0-.6l2.6-2.4c.2-.2.5-.2.6 0 .2.1.2.4 0 .6z" fill="#08324b" fill-opacity=".3562"/><path d="m404.7 35.3c-.2.2-.5.2-.6 0-.2-.2-.2-.5 0-.6.2-.2.5-.2.6 0 .2.2.2.5 0 .6z" fill="#08324b" fill-opacity=".3562"/><path d="m371.2 52 3.8-3.5 2.7 2.9-3.8 3.5zm3.8-3.2-3.5 3.2 2.4 2.6 3.5-3.2z" fill="#7d8f97" opacity=".2463"/><path d="m373.1 50.9h.4v3.7h-.4z" fill="#7d8f97" opacity=".2463" transform="matrix(.736 -.6769 .6769 .736 62.8196 266.6397)"/><path d="m373.9 50.2h.4v3.7h-.4z" fill="#7d8f97" opacity=".2463" transform="matrix(.736 -.6769 .6769 .736 63.4946 266.9703)"/><ellipse cx="375.6" cy="51.6" fill="#7d8f97" opacity=".2463" rx=".5" ry=".5" transform="matrix(.736 -.6769 .6769 .736 64.1942 267.8983)"/><path d="m412.5 17.6c-.4.3-.2.4 1.8 2.6s2 2.3 2.4 2 0-1.9-1.1-3.1c-1.2-1.3-2.7-1.8-3.1-1.5z" fill="#e6eaed" fill-opacity=".319"/><ellipse cx="417" cy="19.6" fill="#e6eaed" fill-opacity=".319" rx=".4" ry=".4"/><ellipse cx="416.7" cy="18.4" fill="#e6eaed" fill-opacity=".319" rx=".5" ry=".6" transform="matrix(.736 -.6769 .6769 .736 97.5641 286.9075)"/><path d="m422.1 17.1-4-4.4c3.2-1.7 5.2-2.1 5.9-1.4.7.8.1 2.7-1.9 5.8z" fill="#184560"/><g transform="translate(212.870423 34.672566)"><path d="m152.7 37-9.8 1.5c-.1 0-.1 0-.1-.1 0 0 0 0 0-.1l1.7-9.7c.7-3.9 4.4-6.6 8.4-5.9 3.9.7 6.6 4.4 5.9 8.4-.6 3.2-3.1 5.5-6.1 5.9z" fill="#f27765"/><path d="m154.1 32.8-6.4 1c-.1 0-.1 0-.1-.1l1.1-6.4c.4-2.6 2.9-4.3 5.5-3.9s4.3 2.9 3.9 5.5c-.4 2.1-2 3.6-4 3.9z" fill="#f69c79"/><path d="m155.3 29.3-3.6.5s-.1 0 0-.1l.6-3.6c.3-1.5 1.7-2.4 3.1-2.2 1.5.3 2.4 1.7 2.2 3.1-.3 1.3-1.2 2.1-2.3 2.3z" fill="#e6dec9"/></g><g transform="translate(44 66)"><path d="m364.6-3.8c-.6-.4-4.5 2.5-5.4 4.1-.6 1.1-5 8.5-13.1 22.5l4.5 2.6c8.7-15 13.1-22.4 13.1-22.4.9-1.6 1.5-6.4.9-6.8z" fill="#184560"/><path d="m362-5.4-16 28.2 2.6 1.5 16-28.2z" fill="#254e66" mask="url(#D)"/><g fill="#e8806d"><path d="m355.7 16.7.3-.5-2.3-1.4-.3.5z" mask="url(#E)"/><path d="m359.5 10.2.3-.5-2.3-1.4-.3.5z" mask="url(#F)"/><path d="m363.4 3.5.3-.5-2.3-1.4-.3.5z" mask="url(#G)"/></g><path d="m361.1 2.1.3-.4-2.5-1.5c-.1.1-.2.3-.3.5z" fill="#f69c79" mask="url(#H)"/><path d="m357.1 8.9.3-.4-2.5-1.5c-.1.1-.2.3-.3.5z" fill="#f69c79" mask="url(#I)"/><path d="m353.3 15.4.3-.4-2.5-1.5c-.1.1-.2.3-.3.5z" fill="#f69c79" mask="url(#J)"/></g><path d="m281.5 91.4h1.7v6.4h-1.7z" fill="#f27765" transform="matrix(.8174 -.576 .576 .8174 -2.9324 179.9142)"/><path d="m282.9 89.6h2.3v7.5h-2.3z" fill="#08324b" transform="matrix(.8174 -.576 .576 .8174 -1.9546 180.6549)"/><path d="m324.7 64.8c-1.1-1.5-8.6 0-11.2 1.8l5.7 8.1c2.7-1.8 6.6-8.4 5.5-9.9z" fill="#184560"/><path d="m243.4 45.1h39.5v10h-39.5z" fill="#a6b1b9" transform="matrix(.8174 -.576 .576 .8174 56.2211 192.7501)"/><path d="m275.5 43.7.5-.3-1-1.4-.5.3zm-.2.1-1-1.4-.5.3 1 1.4zm.9-.6.5-.3-1-1.4-.5.3zm.7-.5.5-.3-1-1.4-.5.3zm.7-.5.5-.3-1-1.4-.5.3zm.8-.2-3.6 2.5-1.3-1.8 3.6-2.5z" fill="#4f6a7a" transform="translate(40 33)"/><path d="m281.2 89.4 5.7 8.1 1.1-.7" fill="none"/><path d="m288 96.7-5.7-8.1 1.1-.8 5.6 8.2z" fill="#6d7f90"/><path d="m290.1 95.2-5.7-8.1 1.1-.8 5.7 8.2z" fill="#6d7f90"/><path d="m305.5 84.4-5.7-8.1 1.1-.8 5.7 8.2z" fill="#6d7f90"/><path d="m324.7 64.7c-1.2-1.4-8.6.1-11.2 1.9l-32.3 22.8 2.8 4z" fill="#fff" opacity=".23"/></g><ellipse cx="370.8" cy="50.2" fill="none" rx="7.4" ry="7.4" stroke="#fff" stroke-dasharray="2.0594 1.0297" stroke-miterlimit="10" transform="matrix(.1579 -.9875 .9875 .1579 262.6571 408.4006)"/><path d="m247.1 240.1v-6.1c0-4.7 3.8-8.6 8.6-8.6h54.1c4.7 0 8.6 3.8 8.6 8.6v6.1z" fill="#4e7285"/><path d="m309.8 225.4h-15.9v14.7h24.5v-6.1c0-4.8-3.8-8.6-8.6-8.6z" fill="#424244" opacity=".11"/><path clip-rule="evenodd" d="m254 225.5c-3.8.8-6.6 4-6.8 8h71.2c-.2-3.9-3-7.2-6.8-8z" fill="#315562" fill-rule="evenodd" opacity=".51"/><path d="m245.8 52.3-9.6-24-2.5 1 9.6 24.1z" fill="#726b65"/><path d="m231.1 33.3c2.8 1.9 6.6 1.2 8.6-1.6 1.9-2.8 1.2-6.6-1.6-8.6-2.8-1.9-6.6-1.2-8.6 1.6-1.9 2.8-1.2 6.7 1.6 8.6z" fill="#f1704d"/><path d="m274.5 143.3h17.3c8.1 0 14.6 6.5 14.6 14.6v40.1c0 3.5-2.8 6.3-6.3 6.3h-10c-3.5 0-6.3-2.8-6.3-6.3v-33.8h-10.2c.1 0 1.7-20.9.9-20.9z" fill="#ece6e1"/><path d="m242.8 143.3h17.3c8.1 0 14.6 6.5 14.6 14.6v40.1c0 3.5-2.8 6.3-6.3 6.3h-10c-3.5 0-6.3-2.8-6.3-6.3v-33.8h-10.1s1.6-20.9.8-20.9z" fill="#ece6e1"/><ellipse cx="250" cy="69.8" fill="#ece6e1" rx="30.1" ry="30.1"/><g clip-path="url(#K)"><ellipse cx="287.3" cy="64" fill="#b2c9d2" rx="21.2" ry="21.2"/><path d="m286.8 42.8c-4.7.1-9 1.7-12.5 4.4 2.8 3.5 4.6 8 4.7 12.8.2 7-3.1 13.3-8.3 17.3 4 4.9 10.2 8.1 17 7.9 11.7-.3 21-10 20.7-21.7-.1-11.7-9.9-21-21.6-20.7z" fill="#a2b8c5"/></g><path d="m279.6 160.8-1.5-46.7c0-14.4-10.2-26-24.6-26h-9.8c-14.4 0-26.1 11.7-26.1 26.1v32.9c0 7.6 6.1 13.7 13.7 13.7 18.1.2 48 .3 48.3 0z" fill="#ece6e1"/><path d="m279.5 137.8s-12.6 5-20.7-4.6c-8-9.6 1.1 6.3 1.1 6.3s7 6.9 19.9 2.5" fill="#e26d60"/><path d="m222.3 146.7 30-.9c4.5-.1 8-3.9 7.9-8.3l-.9-32.6c-.1-4.5-3.9-8-8.4-7.9l-30 .9c-4.5.1-8 3.9-7.9 8.3l.9 32.6c.1 4.5 3.9 8 8.4 7.9z" fill="#ef6b42"/><path d="m299.5 144.3c-1.2.7-2.7 1.2-4.2 1.2l-1.7.1c-12 .5-23-7.2-26.8-18.6l-6.5-19.6c-1.5-4.6 1-9.6 5.6-11.2 4.6-1.5 9.6 1 11.2 5.6l6.5 19.6c1.3 4 5.1 6.6 9.3 6.5l1.7-.1c4.9-.2 9 3.6 9.2 8.5.2 3.4-1.6 6.4-4.3 8z" fill="#ece6e1"/><path d="m299.5 144.3c-1.2.7-2.7 1.2-4.2 1.2l-1.7.1c-12 .5-23-7.2-26.8-18.6l-6.5-19.6c-1.5-4.6 1-9.6 5.6-11.2 4.6-1.5 9.6 1 11.2 5.6l6.5 19.6c1.3 4 5.1 6.6 9.3 6.5l1.7-.1c4.9-.2 9 3.6 9.2 8.5.2 3.4-1.6 6.4-4.3 8z" fill="#ece6e1" opacity=".3"/><path d="m213.9 139.3 26.8-.8c2.9-.1 5.1-2.5 5-5.3l-.1-3.7c-.1-2.9-2.5-5.1-5.3-5l-26.8.8z" fill="#f69c7c" opacity=".42"/><path d="m236.9 119.9c0 1.3 1.1 2.3 2.4 2.3s2.3-1.1 2.3-2.4-1.1-2.3-2.4-2.3-2.3 1.1-2.3 2.4z" fill="#e7dfcb"/><path d="m228.9 120.1c0 1.3 1.1 2.3 2.4 2.3s2.3-1.1 2.3-2.4-1.1-2.3-2.4-2.3-2.3 1.1-2.3 2.4z" fill="#e7dfcb"/><path d="m240.6 135.7c.8 0 1.5-.7 1.5-1.6l-.2-5.5c0-.8-.7-1.5-1.6-1.5-.8 0-1.5.7-1.5 1.6l.2 5.5c.1.8.8 1.5 1.6 1.5z" fill="#fff3ed"/><path d="m234.1 135.9c.8 0 1.5-.7 1.5-1.6l-.2-5.5c0-.8-.7-1.5-1.6-1.5-.8 0-1.5.7-1.5 1.6l.2 5.5c0 .8.7 1.5 1.6 1.5z" fill="#fff3ed"/><path d="m227.5 136.1c.8 0 1.5-.7 1.5-1.6l-.2-5.5c0-.8-.7-1.5-1.6-1.5-.8 0-1.5.7-1.5 1.6l.2 5.5c.1.8.8 1.5 1.6 1.5z" fill="#fff3ed"/><path d="m221 136.2c.8 0 1.5-.7 1.5-1.6l-.2-5.5c0-.8-.7-1.5-1.6-1.5-.8 0-1.5.7-1.5 1.6l.2 5.5c.1.9.8 1.6 1.6 1.5z" fill="#fff3ed"/><path d="m217.6 121.9 7.5-.2c.8 0 1.5-.7 1.5-1.6 0-.8-.7-1.5-1.6-1.5l-7.5.2c-.8 0-1.5.7-1.5 1.6 0 .8.8 1.5 1.6 1.5z" fill="#f69c7c"/><path clip-path="url(#L)" d="m211.2 115 22.9-.7c5-.1 8.9-4.3 8.8-9.3l-.2-7.8-31.9.9z" fill="#766991"/><path d="m257 92.9c-16.6 0-30.1-13.5-30.1-30.1 0-6.5 2.1-12.5 5.6-17.5-7.6 5.5-12.6 14.4-12.6 24.5 0 16.6 13.5 30.1 30.1 30.1 10.1 0 19.1-5 24.5-12.6-4.9 3.5-11 5.6-17.5 5.6z" fill="#ece6e1" opacity=".3"/><path d="m327.3 226.2h-94.8c-6.1 0-11.1-5-11.1-11.1 0-6.1 5-11.1 11.1-11.1h94.8c6.1 0 11.1 5 11.1 11.1 0 6.1-5 11.1-11.1 11.1z" fill="#5a808c"/><path d="m242.5 217.3h-10.3c-1 0-1.8-.8-1.8-1.8 0-1 .8-1.8 1.8-1.8h10.3c1 0 1.8.8 1.8 1.8-.1 1-.9 1.8-1.8 1.8z" fill="#4e7285"/><ellipse cx="248.9" cy="215.3" fill="#e7dfcb" rx="1.9" ry="1.9"/><ellipse cx="255.2" cy="215.4" fill="#e7dfcb" rx="1.9" ry="1.9"/><ellipse cx="261.6" cy="215.5" fill="#e7dfcb" rx="1.9" ry="1.9"/><path d="m268 179.7c-1.8-1.4-17.9-.5-18.4-.5-.6 0-16.7-.8-18.4.5 0 0 15.9 1.7 15.3 25.9h3.1 3.1c-.6-24.2 15.3-25.9 15.3-25.9z" fill="#473f53"/><path d="m275.3 179.8h-50.6c-5.7 0-10.3-4.6-10.3-10.3 0-5.7 4.6-10.3 10.3-10.3h50.6c5.7 0 10.3 4.6 10.3 10.3 0 5.7-4.6 10.3-10.3 10.3z" fill="#7d738c"/><path d="m275.4 159.2h-26.4v20.6h26.5c5.6 0 10.2-4.6 10.2-10.2v-.3c-.1-5.6-4.7-10.1-10.3-10.1z" fill="#424244" opacity=".18"/><path d="m327.3 204h-33.3v22.2h33.3c6.1 0 11.1-5 11.1-11.1 0-6.1-5-11.1-11.1-11.1z" fill="#424244" opacity=".11"/><path d="m265.3 277.7 17 23.9c.1.2.3.2.5.1 0 0 .1-.1.1-.1l17.3-23.7c7-9.6 4.9-23-4.7-30s-23-4.9-30 4.7c-5.7 7.6-5.5 17.7-.2 25.1z" fill="#ee5b30"/><path d="m271.4 265.9 11.1 15.6c.1.1.2.1.3.1 0 0 0 0 .1-.1l11.3-15.5c4.6-6.3 3.2-15.1-3.1-19.6-6.3-4.6-15.1-3.2-19.6 3.1-3.7 5-3.5 11.6-.1 16.4z" fill="#f69c7c"/><path d="m276.4 256.2 6.3 8.8c0 .1.1.1.2 0l6.4-8.7c2.6-3.5 1.8-8.5-1.7-11-3.5-2.6-8.5-1.8-11 1.7-2.2 2.8-2.1 6.5-.2 9.2z" fill="#e7dfcb"/><path d="m309.2 18.4c0-3.1-3-9.7-4.7-9.7s-4.7 6.6-4.7 9.7v22.4h9.4z" fill="#fff" opacity=".27"/><path d="m314.8 19.6c-.8 0-2.9 5-2.9 7.1v14.2h5.9v-14.1c-.1-2.2-2.2-7.2-3-7.2z" fill="#fff" opacity=".27"/><path d="m323.1 19.6c-.8 0-2.9 5-2.9 7.1v14.2h5.9v-14.1c-.1-2.2-2.2-7.2-3-7.2z" fill="#fff" opacity=".27"/><path d="m309.2 18.4c0-3.1-3-9.7-4.7-9.7s-4.7 6.6-4.7 9.7v22.4h9.4z" fill="#fff" opacity=".27"/><path d="m314.8 19.6c-.8 0-2.9 5-2.9 7.1v14.2h5.9v-14.1c-.1-2.2-2.2-7.2-3-7.2z" fill="#fff" opacity=".27"/><path d="m323.1 19.6c-.8 0-2.9 5-2.9 7.1v14.2h5.9v-14.1c-.1-2.2-2.2-7.2-3-7.2z" fill="#fff" opacity=".27"/><path d="m299.8 39.1h9.3v1.7h-9.3z" fill="#dbe8f1" opacity=".48"/><path d="m311.8 39.1h5.9v1.7h-5.9z" fill="#dbe8f1" opacity=".48"/><path d="m320.2 39.1h5.9v1.7h-5.9z" fill="#dbe8f1" opacity=".48"/><path clip-rule="evenodd" d="m342.5 18.2h5.1v1.8h-15.4v-1.9h10.3m-10.4-3.4h19.5v1.9h-19.5zm0-3.4h13.6v1.9h-13.6zm.2 10.4h19.5v1.9h-19.5zm0 3.5h13.4v1.9h-13.4z" fill="#dbe8f1" fill-rule="evenodd" opacity=".48"/><path clip-rule="evenodd" d="m300 46.1h23.1v1.9h-23.1zm-.1-3.4h26.1v1.9h-26.1z" fill="#dbe8f1" fill-rule="evenodd" opacity=".48"/><path clip-rule="evenodd" d="m332.1 33.6c0-2 1.6-3.6 3.6-3.6s3.6 1.6 3.6 3.6-1.6 3.6-3.6 3.6-3.6-1.6-3.6-3.6" fill="#7c8f97" fill-rule="evenodd" opacity=".48"/><path clip-rule="evenodd" d="m341.2 33.6c0-2 1.6-3.6 3.6-3.6s3.6 1.6 3.6 3.6-1.6 3.6-3.6 3.6-3.6-1.6-3.6-3.6" fill="#7c8f97" fill-rule="evenodd" opacity=".48"/><path d="m329.7 37.2h-33.5" fill="none" stroke="#f36c3d" stroke-dasharray="2 1" stroke-miterlimit="10"/></svg>

