<svg viewBox="0 0 613.98 436.75" xmlns="http://www.w3.org/2000/svg" xmlns:xlink="http://www.w3.org/1999/xlink"><clipPath id="a"><circle cx="242.08" cy="240.18" r="42.19"/></clipPath><mask id="b" height="112.36" maskUnits="userSpaceOnUse" width="112.34" x="494.92" y="43.66"><path d="m587 99.84a35.92 35.92 0 1 1 -35.91-35.93 35.92 35.92 0 0 1 35.91 35.93zm20.26 0a56.17 56.17 0 1 1 -56.17-56.18 56.18 56.18 0 0 1 56.17 56.18z" fill="#fff" fill-rule="evenodd"/></mask><mask id="c" height="53.16" maskUnits="userSpaceOnUse" width="103.81" x="499.18" y="82.6"><path d="m585.57 109.91a35.93 35.93 0 0 1 -69-20.21c43.05 13.22 59.36 17.97 69 20.21z" fill="#fff" fill-rule="evenodd"/></mask><mask id="d" height="112.36" maskUnits="userSpaceOnUse" width="112.34" x="494.84" y="43.66"><path d="m515.09 99.84a35.92 35.92 0 1 0 35.91-35.93 35.92 35.92 0 0 0 -35.91 35.93zm-20.25 0a56.17 56.17 0 1 0 56.16-56.18 56.18 56.18 0 0 0 -56.16 56.18z" fill="#fff" fill-rule="evenodd"/></mask><mask id="e" height="53.16" maskUnits="userSpaceOnUse" width="103.81" x="499.11" y="82.6"><path d="m516.28 109.91a35.93 35.93 0 0 0 69-20.21c-43.05 13.22-59.36 17.97-69 20.21z" fill="#fff" fill-rule="evenodd"/></mask><g opacity=".42"><path d="m386.02 55.54h71.93v220.25h-71.93z" fill="#493f5d"/><path d="m452.86 54.66h1.93v7.81h-1.93z" fill="#fb6d40"/><path d="m446.98 54.66h1.93v7.81h-1.93z" fill="#fb6d40"/><path d="m441.2 54.66h1.93v7.81h-1.93z" fill="#7d738c"/><path d="m446.98 54.66h1.93v7.81h-1.93z" fill="#7d738c"/><path d="m435.32 54.66h1.93v7.81h-1.93z" fill="#7d738c"/><path d="m429.53 54.66h1.93v7.81h-1.93z" fill="#7d738c"/><path d="m423.65 54.66h1.93v7.81h-1.93z" fill="#7d738c"/><path d="m417.86 54.66h1.93v7.81h-1.93z" fill="#7d738c"/><path d="m412.07 54.66h1.93v7.81h-1.93z" fill="#7d738c"/><path d="m406.2 54.66h1.93v7.81h-1.93z" fill="#7d738c"/><path d="m400.41 54.66h1.93v7.81h-1.93z" fill="#7d738c"/><path d="m394.53 54.66h1.93v7.81h-1.93z" fill="#7d738c"/><path d="m388.74 54.66h1.93v7.81h-1.93z" fill="#7d738c"/><path d="m452.86 54.66h1.93v7.81h-1.93z" fill="#7d738c"/><path d="m439.35 103.26a18.42 18.42 0 1 1 -18.42-18.51 18.44 18.44 0 0 1 18.42 18.51z" fill="#312647" fill-rule="evenodd"/><path d="m434.62 103.26a13.69 13.69 0 1 1 -13.69-13.77 13.78 13.78 0 0 1 13.69 13.77z" fill="#ccdbe4" fill-rule="evenodd"/><path d="m433.92 95.1 1.49 1.93-24.65 18.16-1.4-1.93z" fill="#fff" opacity=".5"/><path d="m408 111.42-1.4-1.93 24.56-18.16 1.49 1.93z" fill="#fff" fill-rule="evenodd" opacity=".5"/><path d="m439.35 151.24a18.42 18.42 0 1 1 -18.42-18.51 18.44 18.44 0 0 1 18.42 18.51z" fill="#312647" fill-rule="evenodd"/><path d="m434.62 151.24a13.69 13.69 0 1 1 -13.69-13.77 13.78 13.78 0 0 1 13.69 13.77z" fill="#ccdbe4" fill-rule="evenodd"/><path d="m433.92 143.08 1.49 1.93-24.65 18.16-1.4-1.93z" fill="#fff" opacity=".5"/><path d="m408 159.4-1.4-1.93 24.56-18.16 1.49 1.93z" fill="#fff" fill-rule="evenodd" opacity=".5"/><path d="m212.7 232.29h201.66v7.81h-201.66z" fill="#6e7f8f"/><path d="m221.29 238.87h4.91v36.93h-4.91z" fill="#687a7f"/><path d="m244.45 238.87h4.03v36.93h-4.03z" fill="#6e7f8f"/><path d="m265.76 238.87h4.03v36.93h-4.03z" fill="#6e7f8f"/><path d="m287.08 238.87h3.68v36.93h-3.68z" fill="#6e7f8f"/><path d="m308.39 238.87h4.65v36.93h-4.65z" fill="#6e7f8f"/><path d="m330.59 238.87h3.68v36.93h-3.68z" fill="#6e7f8f"/><path d="m351.64 238.87h4.03v36.93h-4.03z" fill="#6e7f8f"/><path d="m372.95 238.87h4.03v36.93h-4.03z" fill="#6e7f8f"/><path d="m394.27 238.87h3.68v36.93h-3.68z" fill="#6e7f8f"/><path d="m226.2 240.1h2.81v35.7h-2.81z" fill="#566366"/><path d="m248.48 240.1h2.81v35.7h-2.81z" fill="#2a4d65"/><path d="m269.8 240.1h2.81v35.7h-2.81z" fill="#2a4d65"/><path d="m290.76 240.1h3.07v35.7h-3.07z" fill="#2a4d65"/><path d="m312.08 240.1h3.07v35.7h-3.07z" fill="#2a4d65"/><path d="m334.36 240.1h2.81v35.7h-2.81z" fill="#2a4d65"/><path d="m355.58 240.1h2.81v35.7h-2.81z" fill="#2a4d65"/><path d="m376.9 240.1h2.81v35.7h-2.81z" fill="#2a4d65"/><path d="m397.95 240.1h3.07v35.7h-3.07z" fill="#2a4d65"/><path d="m203.31 93.87a15.88 15.88 0 0 1 31.75 0v182h-31.84z" fill="#493f5d"/><path d="m254.36 23.61h38.6v188.33h-38.6z" fill="#564970"/><path d="m273.48 210v22.37h42.81l-23.29-22.37z" fill="#493f5d" fill-rule="evenodd"/><path d="m274 210v22.37h-42.8l23.25-22.37z" fill="#493f5d" fill-rule="evenodd"/><path d="m254.36 23.61h38.6v5.61h-38.6z" fill="#493f5d"/><path d="m325.67 121.59h39.56v99.82h-39.56z" fill="#4f6879"/><path d="m325.67 121.59h39.56v27.02h-39.56z" fill="#f18060"/><path d="m334.36 156.68h23.16v14.3h-23.16z" fill="#6e7f8f"/><path d="m340.15 186.68h10.53v34.82h-10.53z" fill="#f69c7c"/><path d="m334.36 129.4h5.88v13.33h-5.88z" fill="#f69c7c"/><path d="m351.64 129.4h5.88v13.33h-5.88z" fill="#f69c7c"/><path d="m331.55 90.54h27.81v31.05h-27.81z" fill="#4f6879"/><path d="m331.29 90.45 8-13.16v-24.38h12.37v24.38l8.24 13.25h-28.35" fill="#f4f7fa" fill-rule="evenodd"/><path d="m365.23 221.5h19.83l-11.23-15.35v-32.81l-8.68-10.7v58.86z" fill="#335064" fill-rule="evenodd"/><path d="m325.67 221.5h-18.94l11.27-15.35v-32.81l7.72-10.7v58.86z" fill="#335064" fill-rule="evenodd"/><path d="m338.66 53 7.28-27.63 6.31 27.63z" fill="#4f6879" fill-rule="evenodd"/><path d="m344.97 8.61h1.93v36.75h-1.93z" fill="#4f6879"/><path d="m256.2 5.89h1.84v17.72h-1.84z" fill="#493f5d"/><path d="m293 64.31h-38.55a1.41 1.41 0 1 1 0-2.8h34.12l-35.17-30.27a1.76 1.76 0 0 1 -.18-2.45 1.58 1.58 0 0 1 2.28-.27l38.5 32.81a1.73 1.73 0 0 1 -1.05 3z" fill="#615b6a" fill-rule="evenodd"/><path d="m293 97.21h-38.55a1.7 1.7 0 0 1 -1.45-1.14 1.78 1.78 0 0 1 .44-1.85l38.5-32.89a1.57 1.57 0 0 1 2.28.18 1.36 1.36 0 0 1 -.17 2.1l-35.22 29.82h34.17a1.82 1.82 0 0 1 1.57 1.85 1.78 1.78 0 0 1 -1.57 1.93z" fill="#7d738c" fill-rule="evenodd"/><path d="m293 64.31h-38.55a1.41 1.41 0 1 1 0-2.8h34.12l-35.17-30.27a1.76 1.76 0 0 1 -.18-2.45 1.58 1.58 0 0 1 2.28-.27l38.5 32.81a1.73 1.73 0 0 1 -1.05 3z" fill="#7d738c" fill-rule="evenodd"/><path d="m293 162.47h-38.55a1.53 1.53 0 0 1 -1.49-1 1.62 1.62 0 0 1 .44-1.75l38.5-32.81a1.74 1.74 0 0 1 2.28.18 1.57 1.57 0 0 1 -.17 2.28l-35.18 29.91h34.17a1.58 1.58 0 0 1 0 3.16z" fill="#7d738c" fill-rule="evenodd"/><path d="m293 129.22h-38.55a1.41 1.41 0 1 1 0-2.8h34.12l-35.17-29.92a1.46 1.46 0 0 1 -.18-2.19 1.64 1.64 0 0 1 2.28-.17l38.5 32.8a1.16 1.16 0 0 1 .44 1.49c-.17.62-.78.79-1.44.79z" fill="#7d738c" fill-rule="evenodd"/><path d="m293 196.33h-38.55c-.88 0-1.58-1.15-1.58-2s.7-2 1.58-2h34.12l-35.17-29.69a1.37 1.37 0 0 1 -.18-2.1 1.56 1.56 0 0 1 2.28-.09l38.5 32.89a1.79 1.79 0 0 1 .44 1.93 1.65 1.65 0 0 1 -1.44 1.06z" fill="#7d738c" fill-rule="evenodd"/><path d="m345.94 10.46a3.78 3.78 0 1 0 -3.78-3.78 3.75 3.75 0 0 0 3.78 3.78z" fill="#f18060" fill-rule="evenodd"/><path d="m261.64 6.51a4.23 4.23 0 0 1 -4.21 4.3 4.29 4.29 0 0 1 -4.21-4.3 4.23 4.23 0 0 1 4.21-4.3 4.29 4.29 0 0 1 4.21 4.3z" fill="#f18060" fill-rule="evenodd"/><path d="m325.67 221.5h5.88v10.88h-5.88z" fill="#335064"/><path d="m337.08 221.5h5.88v10.88h-5.88z" fill="#335064"/><path d="m348.83 221.5h5.88v10.88h-5.88z" fill="#335064"/><path d="m360.23 221.5h4.91v10.88h-4.91z" fill="#335064"/><path d="m412.42 196.33h77.19v79.56h-77.19z" fill="#f18060"/><path d="m445.32 196.33h44.38v79.56h-44.38z" fill="#fb6d40"/><path d="m412.42 196.33v-11.5l17.37 11.5z" fill="#fb6d40" fill-rule="evenodd"/><path d="m415.06 194.66v-6.23l9.12 6.23z" fill="#f69c7c" fill-rule="evenodd"/><path d="m429.79 196.33v-11.5l17.28 11.5z" fill="#fb6d40" fill-rule="evenodd"/><path d="m447.34 196.33v-11.5l16.92 11.5z" fill="#fb6d40" fill-rule="evenodd"/><path d="m432.16 194.66v-6.23l8.6 6.23z" fill="#f69c7c" fill-rule="evenodd"/><path d="m449.27 194.66v-6.23l9.47 6.23z" fill="#f69c7c" fill-rule="evenodd"/><path d="m458.74 234.22h20.35v41.67h-20.35z" fill="#493f5d"/><path d="m429.62 228.78a10 10 0 1 0 -10-10 10.11 10.11 0 0 0 10 10z" fill="#fb6d40" fill-rule="evenodd"/><path d="m429.62 226.15a7.46 7.46 0 1 0 -7.37-7.46 7.44 7.44 0 0 0 7.37 7.46z" fill="#ccdbe4" fill-rule="evenodd"/><g fill="#fff" opacity=".5"><path d="m436.63 214.31.97 1.31-13.33 9.74-.88-1.23z"/><path d="m422.69 223.17-.79-1.06 13.24-9.82.79 1.05z" fill-rule="evenodd"/></g><path d="m438.48 250.88a10 10 0 1 1 -10-10 10 10 0 0 1 10 10z" fill="#fb6d40" fill-rule="evenodd"/><path d="m435.93 250.88a7.37 7.37 0 1 1 -7.37-7.45 7.55 7.55 0 0 1 7.37 7.45z" fill="#ccdbe4" fill-rule="evenodd"/><g fill="#fff" fill-rule="evenodd" opacity=".5"><path d="m423 257.38-.79-1.06 13.33-9.82.79 1.05z"/><path d="m421.55 255.36-.79-1.05 13.24-9.83.79 1.05z"/></g><path d="m477.25 255.88a1.58 1.58 0 1 1 -1.58-1.57 1.62 1.62 0 0 1 1.58 1.57z" fill="#7d738c" fill-rule="evenodd"/><path d="m476.19 166.06h1.93v31.31h-1.93z" fill="#493f5d"/><path d="m477.16 168a4.86 4.86 0 0 0 4.82-4.82 4.81 4.81 0 0 0 -4.82-4.83 4.83 4.83 0 1 0 0 9.65z" fill="#f18060" fill-rule="evenodd"/><path d="m412.42 196.33h77.19v2.81h-77.19z" fill="#493f5d"/><path d="m211.73 199.13h35.79v76.75h-35.79z" fill="#f18060"/><path d="m247.52 217.46v-18.46h-19.47v76.8h19.47z" fill="#fb6d40" fill-rule="evenodd"/><path d="m211.56 227.38h22.28v13.68h-22.28z" fill="#493f5d"/><path d="m224.36 251.59h23.16v14.56h-23.16z" fill="#493f5d"/><g fill-rule="evenodd"><path d="m216.64 228.87a.53.53 0 1 1 -.52-.53.51.51 0 0 1 .52.53z" fill="#e7dfcb"/><path d="m219.45 228.87a.53.53 0 1 1 -.53-.53.51.51 0 0 1 .53.53z" fill="#e7dfcb"/><path d="m222.17 228.87a.53.53 0 1 1 -.53-.53.51.51 0 0 1 .53.53z" fill="#e7dfcb"/><path d="m225 228.87a.53.53 0 1 1 -.53-.53.51.51 0 0 1 .53.53z" fill="#e7dfcb"/><path d="m227.69 228.87a.56.56 0 0 1 -.52.52.53.53 0 1 1 0-1 .46.46 0 0 1 .52.48z" fill="#e7dfcb"/><path d="m230.5 228.87a.53.53 0 1 1 -.52-.53.51.51 0 0 1 .52.53z" fill="#e7dfcb"/><path d="m233.13 228.87a.53.53 0 1 1 -.52-.53.51.51 0 0 1 .52.53z" fill="#e7dfcb"/><path d="m233.13 237.11a.53.53 0 1 1 -.52-.52.56.56 0 0 1 .52.52z" fill="#e7dfcb"/><path d="m233.13 234.31a.53.53 0 1 1 -.52-.53.56.56 0 0 1 .52.53z" fill="#e7dfcb"/><path d="m233.13 231.59a.53.53 0 1 1 -.52-.53.51.51 0 0 1 .52.53z" fill="#e7dfcb"/><path d="m216.64 239.66a.53.53 0 1 1 -.52-.53.56.56 0 0 1 .52.53z" fill="#e7dfcb"/><path d="m213.48 229.39a.53.53 0 1 0 -.52-.52.56.56 0 0 0 .52.52z" fill="#e7dfcb"/><path d="m213.48 240.18a.53.53 0 1 0 -.52-.52.56.56 0 0 0 .52.52z" fill="#e7dfcb"/><path d="m219.45 239.66a.53.53 0 1 1 -.53-.53.56.56 0 0 1 .53.53z" fill="#e7dfcb"/><path d="m222.17 239.66a.53.53 0 1 1 -.53-.53.56.56 0 0 1 .53.53z" fill="#e7dfcb"/><path d="m225 239.66a.53.53 0 1 1 -.53-.53.57.57 0 0 1 .53.53z" fill="#e7dfcb"/><path d="m227.69 239.66a.56.56 0 0 1 -.52.52.53.53 0 1 1 0-1.05.5.5 0 0 1 .52.53z" fill="#e7dfcb"/><path d="m230.5 239.66a.53.53 0 1 1 -.52-.53.56.56 0 0 1 .52.53z" fill="#e7dfcb"/><path d="m233.13 239.66a.53.53 0 1 1 -.52-.53.56.56 0 0 1 .52.53z" fill="#e7dfcb"/><path d="m242.26 253.43a.53.53 0 0 0 1.05 0 .57.57 0 0 0 -.53-.53.51.51 0 0 0 -.52.53z" fill="#e7dfcb"/><path d="m239.45 253.43a.53.53 0 0 0 1.05 0 .53.53 0 1 0 -1.05 0z" fill="#e7dfcb"/><path d="m236.73 253.43a.53.53 0 0 0 1.05 0 .57.57 0 0 0 -.52-.53.51.51 0 0 0 -.53.53z" fill="#e7dfcb"/><path d="m233.92 253.43a.53.53 0 0 0 1.06 0 .53.53 0 0 0 -1.06 0z" fill="#e7dfcb"/><path d="m231.2 253.43a.53.53 0 0 0 1.06 0 .58.58 0 0 0 -.53-.53.51.51 0 0 0 -.53.53z" fill="#e7dfcb"/><path d="m228.4 253.43a.53.53 0 0 0 1 0 .53.53 0 1 0 -1 0z" fill="#e7dfcb"/><path d="m225.77 253.43a.56.56 0 0 0 .52.52.57.57 0 0 0 .53-.52.58.58 0 0 0 -.53-.53.51.51 0 0 0 -.52.53z" fill="#e7dfcb"/><path d="m225.77 261.76a.57.57 0 0 0 .52.53.58.58 0 0 0 .53-.53.57.57 0 0 0 -.53-.52.5.5 0 0 0 -.52.52z" fill="#e7dfcb"/><path d="m225.77 259a.56.56 0 0 0 .52.53.53.53 0 1 0 0-1.05.46.46 0 0 0 -.52.52z" fill="#e7dfcb"/><path d="m225.77 256.15a.56.56 0 0 0 .52.52.53.53 0 1 0 0-1.05.5.5 0 0 0 -.52.53z" fill="#e7dfcb"/><path d="m242.26 264.31a.53.53 0 1 0 .52-.53.5.5 0 0 0 -.52.53z" fill="#e7dfcb"/><path d="m244.8 253.43a.53.53 0 0 0 1 0 .53.53 0 1 0 -1 0z" fill="#e7dfcb"/><path d="m244.8 264.31a.53.53 0 1 0 .53-.53.56.56 0 0 0 -.53.53z" fill="#e7dfcb"/><path d="m239.45 264.31a.53.53 0 1 0 .53-.53.56.56 0 0 0 -.53.53z" fill="#e7dfcb"/><path d="m237.26 264.83a.53.53 0 1 0 -.53-.52.5.5 0 0 0 .53.52z" fill="#e7dfcb"/><path d="m233.92 264.31a.53.53 0 1 0 .53-.53.57.57 0 0 0 -.53.53z" fill="#e7dfcb"/><path d="m231.2 264.31a.53.53 0 1 0 .53-.53.51.51 0 0 0 -.53.53z" fill="#e7dfcb"/><path d="m228.4 264.31a.53.53 0 1 0 .52-.53.56.56 0 0 0 -.52.53z" fill="#e7dfcb"/><path d="m225.77 264.31a.56.56 0 0 0 .52.52.53.53 0 1 0 0-1.05.5.5 0 0 0 -.52.53z" fill="#e7dfcb"/></g><path d="m211.73 215.54h35.79v2.19h-35.79z" fill="#f69c7c"/><path d="m215.68 199.13h1.84v16.49h-1.84z" fill="#f69c7c"/><path d="m221.29 199.13h2.19v16.49h-2.19z" fill="#f69c7c"/><path d="m228.05 199.13h2.19v16.49h-2.19z" fill="#f69c7c"/><path d="m233.92 199.13h1.84v16.49h-1.84z" fill="#f69c7c"/><path d="m240.76 199.13h1.84v16.49h-1.84z" fill="#f69c7c"/><path d="m237.08 168.08h1.93v31.31h-1.93z" fill="#493f5d"/><path d="m242.87 165.27a4.81 4.81 0 0 1 -4.82 4.83 4.87 4.87 0 0 1 -4.83-4.83 4.76 4.76 0 0 1 4.83-4.82 4.86 4.86 0 0 1 4.82 4.82z" fill="#f18060" fill-rule="evenodd"/><path d="m197.35 214.31h5.7v7.46h-5.7z" fill="#9daeb1"/><path d="m200.5 214.39h2.63v7.37h-2.63z" fill="#7e9098"/><path d="m192.7 221.76h14.82v54.65h-14.82z" fill="#4f6879"/><path d="m188.75 229.31h22.63v4.56h-22.63z" fill="#2a4d65"/><path d="m188.75 245.01h22.63v4.56h-22.63z" fill="#2a4d65"/><path d="m188.75 260.09h22.63v4.56h-22.63z" fill="#2a4d65"/><path d="m192.7 200.71h14.82v13.68h-14.82z" fill="#4f6879"/><path d="m197.35 191.24h5.7v9.47h-5.7z" fill="#9daeb1"/><path d="m227.76 175.8a8.51 8.51 0 1 1 -8.5-8.51 8.46 8.46 0 0 1 8.5 8.51z" fill="#ccdbe4" fill-rule="evenodd"/><path d="m213.55 184.31-1.4-1.93 15.35-11.32 1.4 1.93z" fill="#fff" fill-rule="evenodd" opacity=".5"/><path d="m211.19 180.8-1.41-1.93 15.35-11.32 1.41 1.93z" fill="#fff" fill-rule="evenodd" opacity=".5"/><path d="m219.26 167.73a8.07 8.07 0 0 1 -.18 16.14 8.05 8.05 0 0 1 -8.08-8.07 7.94 7.94 0 0 1 8.07-8.07h.18m0-3.51h-.18a11.49 11.49 0 1 0 .18 0z" fill="#312647"/><path d="m200.5 191.24h2.63v9.47h-2.63z" fill="#7e9098"/><path d="m180.85 175.8c0 10.44 8.51 19.3 19 19.3s18.95-8.86 18.95-19.3z" fill="#4f6879" fill-rule="evenodd"/><path d="m204.89 166.85a4.65 4.65 0 1 1 -4.65-4.73 4.71 4.71 0 0 1 4.65 4.73z" fill="#f69c7c" fill-rule="evenodd"/><path d="m202.87 156.15a2.72 2.72 0 1 1 -2.72-2.72 2.63 2.63 0 0 1 2.72 2.72z" fill="#f18060" fill-rule="evenodd"/><path d="m202 148.43a1.8 1.8 0 0 1 -1.84 1.84 1.85 1.85 0 0 1 -1.84-1.84 1.84 1.84 0 1 1 3.68 0z" fill="#f69c7c" fill-rule="evenodd"/><path d="m200.15 143.43a1.14 1.14 0 1 0 0-2.28 1.14 1.14 0 1 0 0 2.28z" fill="#f18060" fill-rule="evenodd"/><path d="m421.2 90.89a12.37 12.37 0 0 1 -.27 24.74 12.37 12.37 0 0 1 0-24.74zm0-6.14h-.27a18.38 18.38 0 1 0 .27 0z" fill="#312647"/><path d="m421.2 138.87a12.37 12.37 0 0 1 -.27 24.74 12.37 12.37 0 0 1 0-24.74zm0-6.14h-.27a18.38 18.38 0 1 0 .27 0z" fill="#312647"/><path d="m230.75 108.35a11.5 11.5 0 1 1 -11.49-11.58 11.55 11.55 0 0 1 11.49 11.58z" fill="#312647" fill-rule="evenodd"/><path d="m227.76 108.35a8.51 8.51 0 1 1 -8.5-8.51 8.45 8.45 0 0 1 8.5 8.51z" fill="#ccdbe4" fill-rule="evenodd"/><path d="m227.5 103.7 1.4 1.93-15.35 11.31-1.4-1.93z" fill="#fff" opacity=".5"/><path d="m211.19 113.43-1.41-1.93 15.35-11.31 1.41 1.93z" fill="#fff" fill-rule="evenodd" opacity=".5"/><path d="m219.26 100.28a8.07 8.07 0 0 1 -.18 16.14 8.05 8.05 0 0 1 -8.07-8.07 7.94 7.94 0 0 1 8.07-8.07zm0-3.51h-.18a11.49 11.49 0 1 0 .18 0z" fill="#312647"/><path d="m230.75 142.07a11.5 11.5 0 1 1 -11.49-11.58 11.55 11.55 0 0 1 11.49 11.58z" fill="#312647" fill-rule="evenodd"/><path d="m227.76 142.07a8.51 8.51 0 1 1 -8.5-8.51 8.46 8.46 0 0 1 8.5 8.51z" fill="#ccdbe4" fill-rule="evenodd"/><path d="m213.55 150.58-1.4-1.93 15.35-11.31 1.4 1.93z" fill="#fff" fill-rule="evenodd" opacity=".5"/><path d="m211.19 147.07-1.41-1.93 15.35-11.31 1.41 1.93z" fill="#fff" fill-rule="evenodd" opacity=".5"/><path d="m219.26 134a8.07 8.07 0 0 1 -.18 16.14 8 8 0 0 1 -8.07-8.07 7.94 7.94 0 0 1 8.07-8.07zm0-3.51h-.18a11.49 11.49 0 1 0 .18 0z" fill="#312647"/></g><path d="m44.72 376.23h525.42a5.28 5.28 0 0 1 5.26 5.26 5.28 5.28 0 0 1 -5.26 5.27h-525.42a5.27 5.27 0 0 1 -5.26-5.27 5.27 5.27 0 0 1 5.26-5.26z" fill="#e7edf1" fill-rule="evenodd"/><path d="m162.43 231.67h327.18v148.68h-327.18z" fill="#315562" fill-rule="evenodd"/><ellipse cx="274.71" cy="427.54" rx="59.3" ry="9.21"/><path d="m400.23 334.3h-191v-48.59a6.63 6.63 0 0 1 6.58-6.58h177.8a6.51 6.51 0 0 1 6.58 6.58z" fill="#4f687a" fill-rule="evenodd"/><path d="m363.92 311.32h-92.37a4.9 4.9 0 0 1 -4.91-4.91v-12.54a4.91 4.91 0 0 1 4.91-4.92h92.37a4.91 4.91 0 0 1 4.91 4.92v12.54a4.84 4.84 0 0 1 -4.91 4.91" fill="#315562" fill-rule="evenodd"/><path d="m320 298.08h-4a1.66 1.66 0 0 1 -1.66-1.67v-1.76a1.66 1.66 0 0 1 1.66-1.65h4a1.66 1.66 0 0 1 1.67 1.66v1.76a1.73 1.73 0 0 1 -1.67 1.67m10.62-.09h-3.95a1.67 1.67 0 0 1 -1.67-1.67v-1.75a1.67 1.67 0 0 1 1.67-1.67h3.95a1.66 1.66 0 0 1 1.66 1.67v1.75a1.66 1.66 0 0 1 -1.66 1.67m10.61-.09h-3.95a1.66 1.66 0 0 1 -1.66-1.67v-1.75a1.66 1.66 0 0 1 1.66-1.67h3.95a1.67 1.67 0 0 1 1.67 1.67v1.75a1.62 1.62 0 0 1 -1.67 1.67m10.7-.09h-3.93a1.66 1.66 0 0 1 -1.66-1.66v-1.76a1.66 1.66 0 0 1 1.66-1.66h3.95a1.66 1.66 0 0 1 1.67 1.66v1.76a1.73 1.73 0 0 1 -1.67 1.66m-31.84 8.51h-3.95a1.66 1.66 0 0 1 -1.66-1.67v-1.76a1.67 1.67 0 0 1 1.66-1.67h3.95a1.67 1.67 0 0 1 1.67 1.67v1.75a1.67 1.67 0 0 1 -1.67 1.67m10.61-.09h-3.94a1.66 1.66 0 0 1 -1.67-1.66v-1.76a1.66 1.66 0 0 1 1.67-1.66h3.94a1.66 1.66 0 0 1 1.67 1.66v1.76a1.56 1.56 0 0 1 -1.67 1.66m10.62 0h-4a1.67 1.67 0 0 1 -1.67-1.66v-1.76a1.66 1.66 0 0 1 1.67-1.66h4a1.66 1.66 0 0 1 1.66 1.66v1.76a1.61 1.61 0 0 1 -1.66 1.66zm10.7-.08h-4.04a1.67 1.67 0 0 1 -1.67-1.67v-1.76a1.66 1.66 0 0 1 1.67-1.66h4a1.67 1.67 0 0 1 1.67 1.66v1.76a1.73 1.73 0 0 1 -1.67 1.67m-60.09-8h-3.91a1.66 1.66 0 0 1 -1.67-1.66v-1.76a1.66 1.66 0 0 1 1.67-1.66h3.94a1.66 1.66 0 0 1 1.67 1.66v1.76a1.56 1.56 0 0 1 -1.67 1.66m.09 8.34h-4.03a1.66 1.66 0 0 1 -1.66-1.67v-1.75a1.66 1.66 0 0 1 1.66-1.67h4a1.67 1.67 0 0 1 1.67 1.67v1.75a1.61 1.61 0 0 1 -1.67 1.68m11.23-8.34h-4a1.67 1.67 0 0 1 -1.67-1.66v-1.76a1.66 1.66 0 0 1 1.67-1.66h4a1.67 1.67 0 0 1 1.67 1.66v1.76a1.57 1.57 0 0 1 -1.67 1.66m.09 8.34h-3.95a1.67 1.67 0 0 1 -1.67-1.67v-1.75a1.67 1.67 0 0 1 1.67-1.67h3.95a1.66 1.66 0 0 1 1.66 1.67v1.75a1.61 1.61 0 0 1 -1.66 1.67" fill="#7c8f97" fill-rule="evenodd"/><path d="m356.2 293.43h3.16v12.72h-3.16z" fill="#dbe8f1" fill-rule="evenodd"/><path d="m290.06 265.09-5.06 20.53h47.28c-1.66-6.84-3.42-13.68-5.09-20.53z" fill="#6d7f91" fill-rule="evenodd"/><path d="m308.41 285.6h23.95c-1.67-6.84-3.43-13.68-5.09-20.52h-18.86z" fill="#424244" fill-rule="evenodd" opacity=".07"/><path d="m335.23 285.27h-53.15a2.66 2.66 0 0 0 -2.46 2.81v1.05h58.07v-1.05a2.66 2.66 0 0 0 -2.46-2.81" fill="#2b3b41" fill-rule="evenodd"/><path d="m228.75 257.11v11.32a3.93 3.93 0 0 0 3.94 3.95h151.93a3.94 3.94 0 0 0 3.95-3.95v-11.32z" fill="#6d7f91" fill-rule="evenodd"/><path d="m388.57 257.11v-95.87a3.94 3.94 0 0 0 -3.95-4h-151.93a3.93 3.93 0 0 0 -3.94 4v95.87z" fill="#6d7f91" fill-rule="evenodd"/><path d="m235.24 163.43h146.76v87.1h-146.76z" fill="#1c272b" fill-rule="evenodd"/><path d="m311.73 264.74a2.72 2.72 0 1 1 -2.73-2.74 2.74 2.74 0 0 1 2.72 2.72" fill="#dbe8f1" fill-rule="evenodd"/><path d="m253.48 195h12.72v3.16h-12.72zm-.26-11.84a7.2 7.2 0 1 1 7.19 7.19 7.22 7.22 0 0 1 -7.19-7.19" fill="#7c8f97" fill-rule="evenodd"/><path d="m272.17 187.55h23.68v2.28h-23.68zm-.09-4.21h23.68v2.28h-23.68zm-.09-4.12h23.68v2.28h-23.67zm.26 12.63h23.69v2.28h-23.69zm0 4.3h23.69v2.28h-23.69z" fill="#dbe8f1" fill-rule="evenodd"/><path d="m254.54 210.8h43.24v1.49h-43.24zm-.18 5.61h43.24v1.49h-43.24zm-.17 5.62h43.24v1.49h-43.24zm-.18 5.7h43.24v1.49h-43.25zm-.18 5.61h43.25v1.49h-43.25z" fill="#6d7f91" fill-rule="evenodd"/><path d="m186.28 311.49h3.42l.52-36h-3.42z" fill="#bbb099" fill-rule="evenodd"/><path d="m162.68 310.62h3.42l.53-36h-3.42z" fill="#bbb099" fill-rule="evenodd"/><path d="m195.14 365.35 95.08 1 .09-3.42-95.09-1.14z" fill="#bbb099" fill-rule="evenodd"/><path d="m196.89 382 95.11 1.16.09-3.42-95.09-1.14z" fill="#bbb099" fill-rule="evenodd"/><path d="m264 150.63h-19.3a4.34 4.34 0 0 0 -4.38 4.38v2.28h28.08v-2.29a4.39 4.39 0 0 0 -4.39-4.38" fill="#7c8f97" fill-rule="evenodd"/><path d="m253.57 128.26h1.49v22.45h-1.49z" fill="#4f687a" fill-rule="evenodd"/><path d="m257.78 129.22a3.6 3.6 0 1 1 -3.59-3.51 3.6 3.6 0 0 1 3.59 3.51" fill="#f18d6d" fill-rule="evenodd"/><path d="m384.63 157.3h-76.13v115.08h76.13a3.93 3.93 0 0 0 3.95-3.95v-107.18a3.93 3.93 0 0 0 -3.95-3.95" fill="#424244" fill-rule="evenodd" opacity=".18"/><path d="m340.06 177.12v66.88" fill="none" stroke="#f39c79" stroke-dasharray="3.96 6.6" stroke-width="1.31"/><path d="m304.89 222.2h67.45" fill="none" stroke="#f39c79" stroke-dasharray="3.96 6.6" stroke-width="1.31"/><path d="m304.36 199.13h67.45" fill="none" stroke="#f39c79" stroke-dasharray="3.96 6.6" stroke-width="1.31"/><path d="m326.38 222.64-.09-19.12-2.55-1.52.09 19.12z" fill="#d34f26" fill-rule="evenodd"/><path d="m323.66 202 16.75-9.65 2.59 1.65-16.66 9.56z" fill="#ef805c" fill-rule="evenodd"/><path d="m328.92 224.13-.09-19.13-2.54-1.49.09 19.12z" fill="#ec6f42" fill-rule="evenodd"/><path d="m326.29 203.52 16.71-9.65 2.55 1.58-16.72 9.55z" fill="#f39c79" fill-rule="evenodd"/><path d="m331.46 225.71-.08-19.12-2.55-1.49.09 19.12z" fill="#d34f26" fill-rule="evenodd"/><path d="m328.83 205.1 16.76-9.65 2.54 1.58-16.75 9.56z" fill="#ef805c" fill-rule="evenodd"/><path d="m334 227.29-.09-19.12-2.54-1.49.08 19.12z" fill="#ec6f42" fill-rule="evenodd"/><path d="m331.38 206.68 16.75-9.68 2.54 1.58-16.75 9.56z" fill="#f39c79" fill-rule="evenodd"/><path d="m336.64 228.78-.09-19.12-2.55-1.49.08 19.12z" fill="#d34f26" fill-rule="evenodd"/><path d="m333.92 208.17 16.75-9.65 2.55 1.58-16.76 9.56z" fill="#ef805c" fill-rule="evenodd"/><path d="m339.18 230.36-.09-19.12-2.54-1.49.09 19.12z" fill="#ec6f42" fill-rule="evenodd"/><path d="m336.46 209.75 16.76-9.65 2.54 1.58-16.76 9.56z" fill="#f39c79" fill-rule="evenodd"/><path d="m341.73 231.85-.09-19.12-2.55-1.49.09 19.12z" fill="#d34f26" fill-rule="evenodd"/><path d="m339.09 211.24 16.76-9.65 2.54 1.49-16.75 9.65z" fill="#ef805c" fill-rule="evenodd"/><path d="m358.39 203.17.26 19.38-16.92 9.3-.09-19.12z" fill="#ec6f42" fill-rule="evenodd"/><path d="m354.8 209.39.08 11-9.56 5.26-.09-10.79z" fill="#f39c79" fill-rule="evenodd"/><path d="m162.43 322.72h327.18v57.63h-327.18z" fill="#1c272b" fill-rule="evenodd"/><g opacity=".5"><circle cx="406.02" cy="361.93" fill="#e66161" r="6.32" transform="matrix(.42071917 -.90719093 .90719093 .42071917 -93.14 578)"/><circle cx="381.9" cy="361.93" fill="#7d728e" r="6.32"/><circle cx="357.69" cy="361.93" fill="#e66161" r="6.32"/><circle cx="333.48" cy="361.93" fill="#7d728e" r="6.32"/><circle cx="309.28" cy="361.93" fill="#e66161" r="6.32"/><circle cx="188.31" cy="361.93" fill="#f4815b" r="6.32"/></g><g opacity=".5"><circle cx="406.02" cy="341.19" fill="#dbe8f1" r="6.32" transform="matrix(.42071917 -.90719093 .90719093 .42071917 -74.32 565.99)"/><circle cx="381.9" cy="341.19" fill="#766991" r="6.32"/><circle cx="357.69" cy="341.19" fill="#dbe8f1" r="6.32"/><circle cx="333.48" cy="341.19" fill="#766991" r="6.32"/><g fill="#dbe8f1"><circle cx="309.28" cy="341.19" r="6.32"/><circle cx="188.31" cy="341.19" r="6.32"/></g></g><path d="m38.86 191.38h-38.86v106.31h38.86z" fill="#315562" fill-rule="evenodd"/><path d="m119.82 153.4h-3v48.51h3z" fill="#425966" fill-rule="evenodd"/><path d="m173.85 315.15h-114.2v14h114.2z" fill="#315562" fill-rule="evenodd"/><path d="m47.71 177.45a10.09 10.09 0 0 0 -10.09 10.09v118.15a10 10 0 0 0 10.09 10.09h140.78a10.09 10.09 0 0 0 10.09-10.09v-118.15a10 10 0 0 0 -10.09-10.09z" fill="#6d7f91" fill-rule="evenodd"/><path d="m188.31 182h-140.43a5.32 5.32 0 0 0 -5.35 5.35v118.52a5.32 5.32 0 0 0 5.35 5.35h140.43a5.32 5.32 0 0 0 5.36-5.35v-118.51a5.32 5.32 0 0 0 -5.36-5.36z" fill="#1c272b" fill-rule="evenodd"/><path d="m193.23 256.57h-35.44m-79.38 11.67h-35.41m34.79-31.14h-35.43" fill-rule="evenodd" stroke="#6d7f91" stroke-width="1.48"/><path d="m193.84 229.91h-35.44" fill="none" stroke="#6d7f91" stroke-linejoin="round" stroke-width="1.48"/><g fill-rule="evenodd"><path d="m109.11 235.87-.11 17.13 14.82 8.59.09-17.1z" fill="#f26f40"/><path d="m123.84 261.57 14.3-8.33.09-17.11-14.3 8.34z" fill="#d44e27"/><path d="m123.93 244.47 14.3-8.34-14.83-8.59-14.29 8.33z" fill="#f4815b"/><path d="m89.72 248-.09 17.1 14.83 8.6.09-17.2z" fill="#f26f40"/><path d="m104.46 273.59 14.3-8.33.08-17.11-14.29 8.33z" fill="#d44e27"/><path d="m104.55 256.48 14.29-8.33-14.84-8.59-14.3 8.33z" fill="#f4815b"/><path d="m128.67 246.84-.09 17.1 14.82 8.6.09-17.11z" fill="#f26f40"/><path d="m143.4 272.45 14.39-8.33.09-17.11-14.3 8.33z" fill="#d44e27"/><path d="m143.49 255.43 14.3-8.33-14.79-8.6-14.3 8.34z" fill="#f4815b"/><path d="m109.28 258.85-.08 17.15 14.8 8.55.09-17.1z" fill="#f26f40"/><path d="m124.11 284.55 14.29-8.33.09-17.1-14.3 8.33z" fill="#d44e27"/><path d="m124.11 267.45 14.29-8.33-14.82-8.6-14.3 8.33z" fill="#f4815b"/><path d="m71.39 259.29-.09 17.11 14.83 8.6.08-17.1z" fill="#f26f40"/><path d="m86.13 284.9 14.29-8.33.09-17.1-14.3 8.33z" fill="#d44e27"/><path d="m86.21 267.89 14.3-8.34-14.82-8.55-14.3 8.33z" fill="#f4815b"/><path d="m91 270.26-.09 17.1 14.83 8.6.08-17.11z" fill="#f26f40"/><path d="m105.77 295.87 14.3-8.33.09-17.11-14.3 8.33z" fill="#d44e27"/><path d="m105.77 278.76 14.3-8.33-14.82-8.59-14.25 8.33z" fill="#f4815b"/><path d="m110.69 208.15-.09 17.11 14.82 8.59.09-17.1z" fill="#f26f40"/><path d="m125.42 233.85 14.39-8.33.09-17.1-14.39 8.33z" fill="#d44e27"/><path d="m125.51 216.75 14.3-8.33-14.81-8.6-14.29 8.33z" fill="#f4815b"/><path d="m91.39 220.26-.09 17.1 14.82 8.6.09-17.11z" fill="#f26f40"/><path d="m106.12 245.87 14.3-8.33.09-17.11-14.3 8.34z" fill="#d44e27"/><path d="m106.12 228.77 14.3-8.34-14.82-8.59-14.21 8.42z" fill="#f4815b"/><path d="m130.25 219.12-.09 17.1 14.82 8.6.09-17.11z" fill="#f26f40"/><path d="m145.07 244.73 14.3-8.33.09-17-14.3 8.33z" fill="#d44e27"/><path d="m145.07 227.71 14.39-8.33-14.83-8.6-14.3 8.34z" fill="#f4815b"/><path d="m111 231.13-.09 17.11 14.83 8.6.08-17.11z" fill="#f26f40"/><path d="m125.69 256.84 14.31-8.34.09-17.1-14.3 8.33z" fill="#d44e27"/><path d="m125.77 239.73 14.3-8.33-14.82-8.6-14.25 8.33z" fill="#f4815b"/><path d="m73.06 231.57-.06 17.11 14.82 8.59.09-17.1z" fill="#f26f40"/><path d="m87.79 257.19 14.3-8.34.09-17.1-14.3 8.33z" fill="#d44e27"/><path d="m87.79 240.17 14.3-8.33-14.82-8.6-14.27 8.33z" fill="#f4815b"/><path d="m92.62 242.54-.09 17.1 14.82 8.6.09-17.11z" fill="#f26f40"/><path d="m107.35 268.15 14.3-8.33.09-17.11-14.3 8.34z" fill="#d44e27"/><path d="m107.44 251.05 14.3-8.34-14.83-8.59-14.29 8.33z" fill="#f4815b"/><path d="m188.33 341.46h-143.42v38.86h143.42z" fill="#315562"/><path d="m143.42 350.06h-52.72v2.63h52.72zm0 4.3h-52.72v2.64h52.72zm0 4.38h-52.72v2.64h52.72zm33.06-9.56h-23.77a3.29 3.29 0 0 0 -3.24 3.25v3.68h30.26v-3.68a3.3 3.3 0 0 0 -3.25-3.25zm3.25 9.56h-30.26v13h30.26zm-99.21-9.56h-23.77a3.29 3.29 0 0 0 -3.24 3.25v3.68h30.26v-3.68a3.24 3.24 0 0 0 -3.25-3.25zm3.25 9.56h-30.26v13h30.26z" fill="#6d7f91"/><path d="m199.73 341.29h-166v-12.11h166z" fill="#6d7f91"/><path d="m164.29 319.62h-9a1.4 1.4 0 0 0 -1.41 1.41 1.39 1.39 0 0 0 1.41 1.4h9a1.39 1.39 0 0 0 1.41-1.4 1.4 1.4 0 0 0 -1.41-1.41z" fill="#dbe8f1"/><path d="m29.82 210.77a10.7 10.7 0 1 1 -10.7-10.7 10.63 10.63 0 0 1 10.7 10.7z" fill="#2b3b41"/><path d="m27 210.77a7.9 7.9 0 1 1 -7.9-8 7.94 7.94 0 0 1 7.9 8z" fill="#ccdbe4"/></g><path d="m26.67 206.03.87 1.14-14.3 10.53-.78-1.14z" fill="#fff" opacity=".5"/><path d="m11.67 215.5-.79-1.14 14.21-10.52.91 1.16z" fill="#fff" fill-rule="evenodd" opacity=".5"/><path d="m29.82 245.85a10.7 10.7 0 1 1 -10.7-10.7 10.62 10.62 0 0 1 10.7 10.7z" fill="#2b3b41" fill-rule="evenodd"/><path d="m27 245.85a7.9 7.9 0 1 1 -7.9-8 7.94 7.94 0 0 1 7.9 8z" fill="#ccdbe4" fill-rule="evenodd"/><path d="m26.67 241.2.87 1.06-14.3 10.52-.78-1.14z" fill="#fff" opacity=".5"/><path d="m11.67 250.59-.79-1.14 14.21-10.53.87 1.14z" fill="#fff" fill-rule="evenodd" opacity=".5"/><path d="m29.82 281a10.7 10.7 0 1 1 -10.7-10.7 10.63 10.63 0 0 1 10.7 10.7z" fill="#2b3b41" fill-rule="evenodd"/><path d="m27 281a7.9 7.9 0 1 1 -7.9-8 7.94 7.94 0 0 1 7.9 8z" fill="#ccdbe4" fill-rule="evenodd"/><path d="m26.67 276.29.87 1.14-14.3 10.53-.78-1.14z" fill="#fff" opacity=".5"/><path d="m11.67 285.68-.79-1.14 14.21-10.54.87 1.14z" fill="#fff" fill-rule="evenodd" opacity=".5"/><path d="m19.3 203.57a7 7 0 0 1 7 7.2 7.11 7.11 0 0 1 -7.18 7.23 7.22 7.22 0 0 1 -7.19-7.19 7.12 7.12 0 0 1 7.19-7.2h.18m0-3.5h-.18a10.61 10.61 0 1 0 .18 0z" fill="#2b3b41"/><path d="m19.3 238.66a7 7 0 0 1 7 7.19 7.11 7.11 0 0 1 -7.19 7.2 7.23 7.23 0 0 1 -7.19-7.2 7.12 7.12 0 0 1 7.19-7.19h.18m0-3.51h-.18a10.61 10.61 0 1 0 .18 0z" fill="#2b3b41"/><path d="m19.3 273.75a7 7 0 0 1 7 7.19 7.11 7.11 0 0 1 -7.19 7.19 7.22 7.22 0 0 1 -7.19-7.19 7.11 7.11 0 0 1 7.19-7.19h.18m0-3.51h-.18a10.61 10.61 0 1 0 .18 0z" fill="#2b3b41"/><path d="m575.12 191.38h38.88v106.31h-38.88z" fill="#315562" fill-rule="evenodd"/><path d="m494.16 153.4h3v48.51h-3z" fill="#425966" fill-rule="evenodd"/><circle cx="495.65" cy="154.8" fill="#f4815b" r="6.05"/><path d="m440.13 315.15h114.2v14h-114.2z" fill="#315562" fill-rule="evenodd"/><path d="m566.27 177.45a10.09 10.09 0 0 1 10.09 10.09v118.15a10 10 0 0 1 -10.09 10.09h-140.78a10.09 10.09 0 0 1 -10.09-10.09v-118.15a10 10 0 0 1 10.09-10.09z" fill="#6d7f91" fill-rule="evenodd"/><path d="m425.67 182h140.43a5.32 5.32 0 0 1 5.35 5.35v118.52a5.32 5.32 0 0 1 -5.35 5.35h-140.43a5.32 5.32 0 0 1 -5.36-5.35v-118.51a5.32 5.32 0 0 1 5.36-5.36z" fill="#1c272b" fill-rule="evenodd"/><path d="m420.75 256.57h35.44m79.38 11.67h35.43m-34.81-31.14h35.43" fill-rule="evenodd" stroke="#6d7f91" stroke-width="1.48"/><path d="m420.14 229.91h35.44" fill="none" stroke="#6d7f91" stroke-linejoin="round" stroke-width="1.48"/><path d="m504.87 235.87.13 17.13-14.82 8.59-.09-17.1z" fill="#f26f40" fill-rule="evenodd"/><path d="m490.14 261.57-14.3-8.33-.09-17.11 14.3 8.34z" fill="#d44e27" fill-rule="evenodd"/><path d="m490.05 244.47-14.3-8.34 14.83-8.59 14.29 8.33z" fill="#f4815b" fill-rule="evenodd"/><path d="m524.26 248 .09 17.1-14.83 8.6-.09-17.2z" fill="#f26f40" fill-rule="evenodd"/><path d="m509.52 273.59-14.3-8.33-.08-17.11 14.29 8.33z" fill="#d44e27" fill-rule="evenodd"/><path d="m509.43 256.48-14.29-8.33 14.86-8.59 14.3 8.33z" fill="#f4815b" fill-rule="evenodd"/><path d="m485.31 246.84.09 17.1-14.82 8.6-.09-17.11z" fill="#f26f40" fill-rule="evenodd"/><path d="m470.58 272.45-14.39-8.33-.09-17.12 14.3 8.33z" fill="#d44e27" fill-rule="evenodd"/><path d="m470.49 255.43-14.3-8.33 14.81-8.6 14.3 8.34z" fill="#f4815b" fill-rule="evenodd"/><path d="m504.7 258.85.09 17.11-14.79 8.59-.09-17.1z" fill="#f26f40" fill-rule="evenodd"/><path d="m489.87 284.55-14.29-8.33-.09-17.1 14.3 8.33z" fill="#d44e27" fill-rule="evenodd"/><path d="m489.87 267.45-14.29-8.33 14.82-8.6 14.3 8.33z" fill="#f4815b" fill-rule="evenodd"/><path d="m542.59 259.29.09 17.11-14.83 8.6-.08-17.1z" fill="#f26f40" fill-rule="evenodd"/><path d="m527.85 284.9-14.29-8.33-.09-17.1 14.3 8.33z" fill="#d44e27" fill-rule="evenodd"/><path d="m527.77 267.89-14.3-8.34 14.82-8.55 14.3 8.33z" fill="#f4815b" fill-rule="evenodd"/><path d="m523 270.26.09 17.1-14.8 8.64-.08-17.11z" fill="#f26f40" fill-rule="evenodd"/><path d="m508.21 295.87-14.3-8.33-.09-17.11 14.3 8.33z" fill="#d44e27" fill-rule="evenodd"/><path d="m508.21 278.76-14.3-8.33 14.82-8.59 14.3 8.33z" fill="#f4815b" fill-rule="evenodd"/><path d="m503.29 208.15.09 17.11-14.82 8.59-.09-17.1z" fill="#f26f40" fill-rule="evenodd"/><path d="m488.56 233.85-14.39-8.33-.09-17.1 14.39 8.33z" fill="#d44e27" fill-rule="evenodd"/><path d="m488.47 216.75-14.3-8.33 14.83-8.6 14.29 8.33z" fill="#f4815b" fill-rule="evenodd"/><path d="m522.59 220.26.09 17.1-14.82 8.64-.09-17.11z" fill="#f26f40" fill-rule="evenodd"/><path d="m507.86 245.87-14.3-8.33-.09-17.11 14.3 8.34z" fill="#d44e27" fill-rule="evenodd"/><path d="m507.86 228.77-14.3-8.34 14.82-8.59 14.21 8.42z" fill="#f4815b" fill-rule="evenodd"/><path d="m483.73 219.12.09 17.1-14.82 8.6-.09-17.11z" fill="#f26f40" fill-rule="evenodd"/><path d="m468.91 244.73-14.3-8.33-.09-17 14.3 8.33z" fill="#d44e27" fill-rule="evenodd"/><path d="m468.91 227.71-14.39-8.33 14.83-8.6 14.3 8.34z" fill="#f4815b" fill-rule="evenodd"/><path d="m503 231.13.09 17.11-14.83 8.6-.08-17.11z" fill="#f26f40" fill-rule="evenodd"/><path d="m488.29 256.84-14.29-8.34-.09-17.1 14.3 8.33z" fill="#d44e27" fill-rule="evenodd"/><path d="m488.21 239.73-14.3-8.33 14.82-8.6 14.3 8.33z" fill="#f4815b" fill-rule="evenodd"/><path d="m540.92 231.57.09 17.11-14.82 8.59-.09-17.1z" fill="#f26f40" fill-rule="evenodd"/><path d="m526.19 257.19-14.3-8.34-.09-17.1 14.3 8.33z" fill="#d44e27" fill-rule="evenodd"/><path d="m526.19 240.17-14.3-8.33 14.82-8.6 14.3 8.33z" fill="#f4815b" fill-rule="evenodd"/><path d="m521.36 242.54.09 17.1-14.82 8.6-.09-17.11z" fill="#f26f40" fill-rule="evenodd"/><path d="m506.63 268.15-14.3-8.33-.09-17.11 14.3 8.34z" fill="#d44e27" fill-rule="evenodd"/><path d="m506.54 251.05-14.3-8.34 14.83-8.59 14.29 8.33z" fill="#f4815b" fill-rule="evenodd"/><path d="m566.09 177.45h-71.29v138.33h71.29a10.14 10.14 0 0 0 10.25-10.09v-118.15a10.14 10.14 0 0 0 -10.25-10.09z" fill-rule="evenodd" opacity=".12"/><path d="m47.89 315.78h71.29v-138.33h-71.29a10.14 10.14 0 0 0 -10.25 10.09v118.15a10.14 10.14 0 0 0 10.25 10.09z" fill-rule="evenodd" opacity=".12"/><path d="m425.65 341.46h143.42v38.86h-143.42z" fill="#315562" fill-rule="evenodd"/><path d="m470.56 350.06h52.72v2.63h-52.72zm0 4.3h52.72v2.64h-52.72zm0 4.38h52.72v2.64h-52.72zm-33.06-9.56h23.77a3.29 3.29 0 0 1 3.24 3.25v3.68h-30.26v-3.68a3.3 3.3 0 0 1 3.25-3.25zm-3.25 9.56h30.26v13h-30.26zm99.21-9.56h23.77a3.29 3.29 0 0 1 3.24 3.25v3.68h-30.26v-3.68a3.24 3.24 0 0 1 3.25-3.25zm-3.25 9.56h30.26v13h-30.26z" fill="#6d7f91" fill-rule="evenodd"/><path d="m414.25 341.29h166v-12.11h-166z" fill="#6d7f91" fill-rule="evenodd"/><path d="m449.69 319.62h9a1.4 1.4 0 0 1 1.41 1.41 1.39 1.39 0 0 1 -1.41 1.4h-9a1.39 1.39 0 0 1 -1.41-1.4 1.4 1.4 0 0 1 1.41-1.41z" fill="#dbe8f1" fill-rule="evenodd"/><circle cx="463.46" cy="320.85" fill="#dbe8f1" r="1.23"/><circle cx="468.63" cy="320.85" fill="#dbe8f1" r="1.23"/><circle cx="473.72" cy="320.85" fill="#dbe8f1" r="1.23"/><circle cx="478.9" cy="320.85" fill="#dbe8f1" r="1.23"/><path d="m605.21 209.45a10.7 10.7 0 1 1 -10.7-10.7 10.63 10.63 0 0 1 10.7 10.7z" fill="#2b3b41" fill-rule="evenodd"/><path d="m602.4 209.45a7.9 7.9 0 1 1 -7.89-8 7.93 7.93 0 0 1 7.89 8z" fill="#ccdbe4" fill-rule="evenodd"/><path d="m602.05 204.71.88 1.14-14.3 10.53-.79-1.14z" fill="#fff" opacity=".5"/><path d="m587.05 214.19-.79-1.14 14.21-10.53.88 1.14z" fill="#fff" fill-rule="evenodd" opacity=".5"/><path d="m594.68 202.26a7 7 0 0 1 7 7.19 7.11 7.11 0 0 1 -7.19 7.19 7.23 7.23 0 0 1 -7.2-7.19 7.12 7.12 0 0 1 7.2-7.19h.17m0-3.51h-.17a10.62 10.62 0 1 0 .17 0z" fill="#2b3b41"/><path d="m605.21 244.54a10.7 10.7 0 1 1 -10.7-10.7 10.64 10.64 0 0 1 10.7 10.7z" fill="#2b3b41" fill-rule="evenodd"/><path d="m602.4 244.54a7.9 7.9 0 1 1 -7.89-8 7.94 7.94 0 0 1 7.89 8z" fill="#ccdbe4" fill-rule="evenodd"/><path d="m602.05 239.8.88 1.14-14.3 10.53-.79-1.14z" fill="#fff" opacity=".5"/><path d="m587.05 249.27-.79-1.14 14.21-10.52.88 1.14z" fill="#fff" fill-rule="evenodd" opacity=".5"/><path d="m605.21 279.62a10.7 10.7 0 1 1 -10.7-10.7 10.64 10.64 0 0 1 10.7 10.7z" fill="#2b3b41" fill-rule="evenodd"/><path d="m602.4 279.62a7.9 7.9 0 1 1 -7.89-8 7.94 7.94 0 0 1 7.89 8z" fill="#ccdbe4" fill-rule="evenodd"/><path d="m602.05 274.98.88 1.14-14.3 10.43-.79-1.14z" fill="#fff" opacity=".5"/><path d="m587.05 284.36-.79-1.14 14.21-10.53.88 1.14z" fill="#fff" fill-rule="evenodd" opacity=".5"/><path d="m594.68 237.34a7 7 0 0 1 7 7.2 7.12 7.12 0 0 1 -7.19 7.19 7.23 7.23 0 0 1 -7.2-7.19 7.12 7.12 0 0 1 7.2-7.2h.17m0-3.5h-.17a10.62 10.62 0 1 0 .17 0z" fill="#2b3b41"/><path d="m594.68 272.43a7 7 0 0 1 7 7.19 7.12 7.12 0 0 1 -7.19 7.2 7.23 7.23 0 0 1 -7.2-7.2 7.12 7.12 0 0 1 7.2-7.19h.17m0-3.51h-.17a10.62 10.62 0 1 0 .17 0z" fill="#2b3b41"/><path d="m363.9 288.94h-55.79v22.46h55.79a5 5 0 0 0 5-4.91v-12.64a4.93 4.93 0 0 0 -5-4.91" fill="#424244" fill-rule="evenodd" opacity=".18"/><path d="m236.2 215.62-13.51-33.77-3.5 1.49 13.5 33.77z" fill="#726b65"/><path d="m215.59 189a8.64 8.64 0 1 0 -2.19-12 8.61 8.61 0 0 0 2.19 12z" fill="#f1704d"/><path d="m276.38 343.16h24.29a20.55 20.55 0 0 1 20.53 20.53v56.22a8.79 8.79 0 0 1 -8.77 8.77h-14a8.79 8.79 0 0 1 -8.77-8.77v-47.36h-14.3c-.12 0 2.16-29.39 1.02-29.39z" fill="#ece6e1"/><path d="m232.08 343.16h24.3a20.55 20.55 0 0 1 20.52 20.53v56.22a8.79 8.79 0 0 1 -8.77 8.77h-14a8.79 8.79 0 0 1 -8.77-8.77v-47.36h-14.36c-.06 0 2.13-29.39 1.08-29.39z" fill="#ece6e1"/><circle cx="242.08" cy="240.18" fill="#ece6e1" r="42.19"/><g clip-path="url(#a)"><circle cx="294.36" cy="232.03" fill="#b2c9d2" r="29.74"/><path d="m293.75 202.29a30.1 30.1 0 0 0 -17.46 6.14 29.7 29.7 0 0 1 -5 42.19 29.81 29.81 0 0 0 53-19.38 29.89 29.89 0 0 0 -30.54-28.95z" fill="#a2b8c5"/></g><path d="m283.57 367.72-2.19-65.43c0-20.09-14.3-36.49-34.48-36.49h-13.77a36.74 36.74 0 0 0 -36.66 36.57v46.23a19.34 19.34 0 0 0 19.21 19.3c25.61.1 67.54.26 67.89-.18z" fill="#ece6e1"/><path d="m283.48 335.44s-17.72 7-29-6.4 1.49 8.77 1.49 8.77 9.74 9.74 27.89 3.51" fill="#e26d60"/><path d="m251.9 272.46a42.2 42.2 0 0 1 -34.38-66.66 42.17 42.17 0 1 0 58.86 58.77 41.39 41.39 0 0 1 -24.48 7.89z" opacity=".12"/><path d="m335.85 305.09a11.79 11.79 0 0 1 -3.51 5.09l-1.75 1.58a38.15 38.15 0 0 1 -45.53 3.42l-24.38-15.61a12.39 12.39 0 1 1 13.32-20.88l24.38 15.61a13.19 13.19 0 0 0 15.79-1.22l1.76-1.58a12.45 12.45 0 0 1 19.91 13.59z" fill="#ece6e1"/><path d="m335.85 305.09a11.79 11.79 0 0 1 -3.51 5.09l-1.75 1.58a38.15 38.15 0 0 1 -45.53 3.42l-24.38-15.61a12.39 12.39 0 1 1 13.32-20.88l24.38 15.61a13.19 13.19 0 0 0 15.79-1.22l1.76-1.58a12.45 12.45 0 0 1 19.91 13.59z" fill="#ece6e1" opacity=".3"/><path d="m203.22 347.9 42-1.23a11.41 11.41 0 0 0 11.07-11.67l-1.29-45.7a11.44 11.44 0 0 0 -11.75-11.05l-42 1.23a11.43 11.43 0 0 0 -11 11.67l1.32 45.7a11.33 11.33 0 0 0 11.65 11.05z" fill="#ef6b42"/><path d="m191.47 337.55 37.53-1.05a7.33 7.33 0 0 0 7.11-7.46l-.18-5.26a7.32 7.32 0 0 0 -7.46-7.11l-37.54 1.05z" fill="#f69c7c" opacity=".42"/><path d="m223.75 310.36a3.33 3.33 0 1 0 3.24-3.42 3.33 3.33 0 0 0 -3.24 3.42z" fill="#e7dfcb"/><path d="m212.52 310.71a3.34 3.34 0 1 0 3.25-3.42 3.32 3.32 0 0 0 -3.25 3.42z" fill="#e7dfcb"/><path d="m228.92 332.55a2.08 2.08 0 0 0 2-2.19l-.26-7.64a2.08 2.08 0 0 0 -2.2-2 2.07 2.07 0 0 0 -2 2.19l.26 7.63a2.2 2.2 0 0 0 2.2 2.01z" fill="#fff3ed"/><path d="m219.8 332.81a2.08 2.08 0 0 0 2-2.19l-.27-7.63a2.08 2.08 0 0 0 -2.19-2 2.09 2.09 0 0 0 -2 2.19l.27 7.63a2.08 2.08 0 0 0 2.19 2z" fill="#fff3ed"/><path d="m210.59 333.07a2.08 2.08 0 0 0 2-2.19l-.27-7.63a2.09 2.09 0 0 0 -2.19-2 2.09 2.09 0 0 0 -2 2.2l.27 7.63a2.19 2.19 0 0 0 2.19 1.99z" fill="#fff3ed"/><path d="m201.47 333.34a2.09 2.09 0 0 0 2-2.2l-.27-7.63a2.07 2.07 0 0 0 -2.19-2 2.08 2.08 0 0 0 -2 2.19l.26 7.63a2.09 2.09 0 0 0 2.2 2.01z" fill="#fff3ed"/><path d="m196.64 313.16 10.53-.26a2.21 2.21 0 0 0 2.1-2.19 2.21 2.21 0 0 0 -2.19-2.11l-10.52.26a2.22 2.22 0 0 0 -2.11 2.2 2.09 2.09 0 0 0 2.19 2.1z" fill="#f69c7c"/><path d="m267.25 394.21c-2.45-1.93-25.08-.79-25.87-.7s-23.42-1.14-25.88.7c0 0 22.28 2.46 21.49 36.32h8.69c-.62-33.86 21.57-36.32 21.57-36.32z" fill="#473f53"/><path d="m277.52 394.39h-71a14.49 14.49 0 0 1 -14.48-14.48 14.49 14.49 0 0 1 14.48-14.47h71a14.48 14.48 0 0 1 14.48 14.47 14.49 14.49 0 0 1 -14.48 14.48z" fill="#7d738c"/><path d="m277.78 365.44h-37.1v28.95h37.1a14.27 14.27 0 0 0 14.22-14.21v-.44a14.28 14.28 0 0 0 -14.22-14.3z" fill="#424244" opacity=".18"/><path d="m231.91 278.6-30.71.88a11.43 11.43 0 0 0 -11 11.67l.35 12.19 42-1.23z" fill="#655c80" opacity=".42"/><path d="m121.91 150.71a3.6 3.6 0 1 1 -3.6-3.51 3.6 3.6 0 0 1 3.6 3.51" fill="#f18d6d" fill-rule="evenodd"/><path d="m96.29 6.52a6.37 6.37 0 0 1 .83.05h.21l-.33 2.53h-.18-.25-.25a5.87 5.87 0 0 0 -2.46.56 7.13 7.13 0 0 0 -3.07 2.82 1.27 1.27 0 0 1 -2.18-1.3 9.39 9.39 0 0 1 5.39-4.34 8.59 8.59 0 0 1 2.29-.32z" fill="#315562"/><ellipse cx="89.77" cy="12.49" fill="#2b3b41" opacity=".4" rx=".24" ry=".14" transform="matrix(1 -.01 .01 1 -.06 .45)"/><path d="m97.17 9.27a8.32 8.32 0 0 0 2.06 1 9.34 9.34 0 0 0 6.88-.54 1.26 1.26 0 0 0 .14-2.2 1.25 1.25 0 0 0 -1.24-.09 7.17 7.17 0 0 1 -4.12.67 5.94 5.94 0 0 1 -2.36-.9l-.16-.21-.2-.13-.17-.12-1.7 1.87.16.15a6.65 6.65 0 0 0 .67.5z" fill="#315562"/><path d="m90.48 19 2.52-8.85.53-1.66a2.75 2.75 0 0 1 3-2l1 .17a2.75 2.75 0 0 1 2.18 2.87l-.71 11.15a1.53 1.53 0 0 1 -1.56 1.49 1.52 1.52 0 0 1 -1.44-1.57v-4.54a.62.62 0 0 0 -.5-.55.61.61 0 0 0 -.65.36l-1.48 4a1.52 1.52 0 0 1 -1.91 1 1.53 1.53 0 0 1 -.98-1.87z" fill="#315562"/><ellipse cx="104.16" cy="6.49" fill="#2b3b41" opacity=".4" rx=".38" ry=".22" transform="matrix(.88122096 -.47270457 .47270457 .88122096 9.31 50.01)"/><path d="m104.68 7a.21.21 0 0 1 .07-.29.2.2 0 0 1 .28.07c.09.14.2.28.31.42a.21.21 0 0 1 -.32.26c-.12-.12-.23-.27-.34-.46z" fill="#2b3b41" opacity=".13"/><path d="m97.12 9.2a.77.77 0 0 1 -1 0c-1.08-.91-3.59-3.21-3.58-5a4.11 4.11 0 0 1 8.22 0c0 1.8-2.54 4.11-3.64 5z" fill="#315562" stroke="#1c272b" stroke-miterlimit="10" stroke-width=".25"/><path d="m99.39 2.5a2.58 2.58 0 0 1 -.57 1.81 2.6 2.6 0 0 1 -1.82.55 2.57 2.57 0 0 1 .53-1.86 2.55 2.55 0 0 1 1.86-.5z" fill="#6d7f91"/><path d="m96.32 4.85a2.55 2.55 0 0 1 -1.8-.57 2.6 2.6 0 0 1 -.52-1.82 2.55 2.55 0 0 1 1.82.54 2.5 2.5 0 0 1 .5 1.85z" fill="#6d7f91"/><path d="m127.94 50.92a36.56 36.56 0 1 1 -36.55-36.56 36.55 36.55 0 0 1 36.55 36.56z" fill="#766991" fill-rule="evenodd"/><path d="m102.19 85.85a36.56 36.56 0 0 1 -45.72-24.14c.17.58 18.34 10 37.63 4.05s32.39-25.07 32.21-25.64a36.57 36.57 0 0 1 -24.12 45.73z" fill="#645b7f" fill-rule="evenodd"/><path d="m142.38 35.29c1.07 3.48-20.9 13.3-49.06 21.93s-51.86 12.78-52.92 9.32 20.9-13.3 49.06-21.93 51.85-12.8 52.92-9.32z" fill="none" stroke="#473f54" stroke-width="3"/><path d="m85.74 50.92c-14.04 0-25.25 10.08-29.74 9.28a31.24 31.24 0 0 1 -1.19-9.28c-.44-20.19 16.39-36.56 36.58-36.56a36.56 36.56 0 0 1 34.7 25c1.2 3.62-11.77.68-11.77 4.71 0 .03-8.4 6.85-28.58 6.85z" fill="#766991" fill-rule="evenodd"/><path d="m551.09 135.76a35.93 35.93 0 1 1 35.91-35.92 35.92 35.92 0 0 1 -35.91 35.92z" fill="#475f89" fill-rule="evenodd"/><path d="m515.28 97c0 .58 13.11 15.8 32.89 17.36s38.67-11.11 38.72-11.7a35.92 35.92 0 1 1 -71.61-5.66z" fill="#425b7a" fill-rule="evenodd"/><g mask="url(#b)"><path d="m601.46 114.28c-1 3.44-24.34-.24-52.16-8.22s-49.57-17.23-48.59-20.67 24.34.24 52.16 8.22 49.57 17.23 48.59 20.67z" fill="none" stroke="#394e6b" stroke-width="3"/></g><g mask="url(#c)"><path d="m601.46 114.28c-1 3.44-24.34-.24-52.16-8.22s-49.57-17.23-48.59-20.67 24.34.24 52.16 8.22 49.57 17.23 48.59 20.67z" fill="none" stroke="#394e6b" stroke-width="3"/></g><g mask="url(#d)"><path d="m500.64 114.28c1 3.44 24.34-.24 52.15-8.22s49.58-17.23 48.59-20.67-24.34.24-52.16 8.22-49.57 17.23-48.58 20.67z" fill="none" stroke="#394e6b" stroke-width="3"/></g><g mask="url(#e)"><path d="m500.64 114.28c1 3.44 24.34-.24 52.15-8.22s49.58-17.23 48.59-20.67-24.34.24-52.16 8.22-49.57 17.23-48.58 20.67z" fill="none" stroke="#394e6b" stroke-width="3"/></g></svg>